<svg height="92" version="1.1" width="98.83778132003164" xmlns="http://www.w3.org/2000/svg" style="overflow: hidden; position: relative;"><desc style="-webkit-tap-highlight-color: rgba(0, 0, 0, 0);">Created with Raphaël 2.1.2</desc><defs style="-webkit-tap-highlight-color: rgba(0, 0, 0, 0);"></defs><path fill="#ff0000" stroke="#2a2a2a" d="M0,0L0.15,0.1L0.85,0.1L1,0L0.85,-0.1L0.15,-0.1Z" transform="matrix(10,0,0,10,8.473,1.5)" stroke-width="0.1" style="-webkit-tap-highlight-color: rgba(0, 0, 0, 0);"></path><path fill="#ff0000" stroke="#2a2a2a" d="M0,0L0.15,0.1L0.85,0.1L1,0L0.85,-0.1L0.15,-0.1Z" transform="matrix(-1.7365,9.8481,-9.8481,-1.7365,19.3412,1.576)" stroke-width="0.1" style="-webkit-tap-highlight-color: rgba(0, 0, 0, 0);"></path><path fill="#ff0000" stroke="#2a2a2a" d="M0,0L0.15,0.1L0.85,0.1L1,0L0.85,-0.1L0.15,-0.1Z" transform="matrix(-1.7365,9.8481,-9.8481,-1.7365,17.6047,11.576)" stroke-width="0.1" style="-webkit-tap-highlight-color: rgba(0, 0, 0, 0);"></path><path fill="#ff0000" stroke="#2a2a2a" d="M0,0L0.15,0.1L0.85,0.1L1,0L0.85,-0.1L0.15,-0.1Z" transform="matrix(10,0,0,10,5,21.5)" stroke-width="0.1" style="-webkit-tap-highlight-color: rgba(0, 0, 0, 0);"></path><path fill="#ff0000" stroke="#2a2a2a" d="M0,0L0.15,0.1L0.85,0.1L1,0L0.85,-0.1L0.15,-0.1Z" transform="matrix(-1.7365,9.8481,-9.8481,-1.7365,5.8682,11.576)" stroke-width="0.1" style="-webkit-tap-highlight-color: rgba(0, 0, 0, 0);"></path><path fill="#ff0000" stroke="#2a2a2a" d="M0,0L0.15,0.1L0.85,0.1L1,0L0.85,-0.1L0.15,-0.1Z" transform="matrix(-1.7365,9.8481,-9.8481,-1.7365,7.6047,1.576)" stroke-width="0.1" style="-webkit-tap-highlight-color: rgba(0, 0, 0, 0);"></path><path fill="#ff0000" stroke="#2a2a2a" d="M0,0L0.15,0.1L0.85,0.1L1,0L0.85,-0.1L0.15,-0.1Z" transform="matrix(10,0,0,10,6.7365,11.5)" stroke-width="0.1" style="-webkit-tap-highlight-color: rgba(0, 0, 0, 0);"></path><circle cx="17.7364817766693" cy="21.5" r="1" fill="#ff0000" stroke="#2a2a2a" style="-webkit-tap-highlight-color: rgba(0, 0, 0, 0);"></circle><path fill="#ff0000" stroke="#2a2a2a" d="M0,0L0.15,0.1L0.85,0.1L1,0L0.85,-0.1L0.15,-0.1Z" transform="matrix(10,0,0,10,24.9459,1.5)" stroke-width="0.1" style="-webkit-tap-highlight-color: rgba(0, 0, 0, 0);"></path><path fill="#ff0000" stroke="#2a2a2a" d="M0,0L0.15,0.1L0.85,0.1L1,0L0.85,-0.1L0.15,-0.1Z" transform="matrix(-1.7365,9.8481,-9.8481,-1.7365,35.8142,1.576)" stroke-width="0.1" style="-webkit-tap-highlight-color: rgba(0, 0, 0, 0);"></path><path fill="#ff0000" stroke="#2a2a2a" d="M0,0L0.15,0.1L0.85,0.1L1,0L0.85,-0.1L0.15,-0.1Z" transform="matrix(-1.7365,9.8481,-9.8481,-1.7365,34.0777,11.576)" stroke-width="0.1" style="-webkit-tap-highlight-color: rgba(0, 0, 0, 0);"></path><path fill="#ff0000" stroke="#2a2a2a" d="M0,0L0.15,0.1L0.85,0.1L1,0L0.85,-0.1L0.15,-0.1Z" transform="matrix(10,0,0,10,21.473,21.5)" stroke-width="0.1" style="-webkit-tap-highlight-color: rgba(0, 0, 0, 0);"></path><path fill="#ff0000" stroke="#2a2a2a" d="M0,0L0.15,0.1L0.85,0.1L1,0L0.85,-0.1L0.15,-0.1Z" transform="matrix(-1.7365,9.8481,-9.8481,-1.7365,22.3412,11.576)" stroke-width="0.1" style="-webkit-tap-highlight-color: rgba(0, 0, 0, 0);"></path><path fill="#ff0000" stroke="#2a2a2a" d="M0,0L0.15,0.1L0.85,0.1L1,0L0.85,-0.1L0.15,-0.1Z" transform="matrix(-1.7365,9.8481,-9.8481,-1.7365,24.0777,1.576)" stroke-width="0.1" style="-webkit-tap-highlight-color: rgba(0, 0, 0, 0);"></path><path fill="#ff0000" stroke="#2a2a2a" d="M0,0L0.15,0.1L0.85,0.1L1,0L0.85,-0.1L0.15,-0.1Z" transform="matrix(10,0,0,10,23.2094,11.5)" stroke-width="0.1" style="-webkit-tap-highlight-color: rgba(0, 0, 0, 0);"></path><circle cx="34.20944533000791" cy="21.5" r="1" fill="#ff0000" stroke="#2a2a2a" style="-webkit-tap-highlight-color: rgba(0, 0, 0, 0);"></circle><path fill="#ff0000" stroke="#2a2a2a" d="M0,0L0.15,0.1L0.85,0.1L1,0L0.85,-0.1L0.15,-0.1Z" transform="matrix(10,0,0,10,41.4189,1.5)" stroke-width="0.1" style="-webkit-tap-highlight-color: rgba(0, 0, 0, 0);"></path><path fill="#ff0000" stroke="#2a2a2a" d="M0,0L0.15,0.1L0.85,0.1L1,0L0.85,-0.1L0.15,-0.1Z" transform="matrix(-1.7365,9.8481,-9.8481,-1.7365,52.2871,1.576)" stroke-width="0.1" style="-webkit-tap-highlight-color: rgba(0, 0, 0, 0);"></path><path fill="#ff0000" stroke="#2a2a2a" d="M0,0L0.15,0.1L0.85,0.1L1,0L0.85,-0.1L0.15,-0.1Z" transform="matrix(-1.7365,9.8481,-9.8481,-1.7365,50.5506,11.576)" stroke-width="0.1" style="-webkit-tap-highlight-color: rgba(0, 0, 0, 0);"></path><path fill="#ff0000" stroke="#2a2a2a" d="M0,0L0.15,0.1L0.85,0.1L1,0L0.85,-0.1L0.15,-0.1Z" transform="matrix(10,0,0,10,37.9459,21.5)" stroke-width="0.1" style="-webkit-tap-highlight-color: rgba(0, 0, 0, 0);"></path><path fill="#ff0000" stroke="#2a2a2a" d="M0,0L0.15,0.1L0.85,0.1L1,0L0.85,-0.1L0.15,-0.1Z" transform="matrix(-1.7365,9.8481,-9.8481,-1.7365,38.8142,11.576)" stroke-width="0.1" style="-webkit-tap-highlight-color: rgba(0, 0, 0, 0);"></path><path fill="#ff0000" stroke="#2a2a2a" d="M0,0L0.15,0.1L0.85,0.1L1,0L0.85,-0.1L0.15,-0.1Z" transform="matrix(-1.7365,9.8481,-9.8481,-1.7365,40.5506,1.576)" stroke-width="0.1" style="-webkit-tap-highlight-color: rgba(0, 0, 0, 0);"></path><path fill="#ff0000" stroke="#2a2a2a" d="M0,0L0.15,0.1L0.85,0.1L1,0L0.85,-0.1L0.15,-0.1Z" transform="matrix(10,0,0,10,39.6824,11.5)" stroke-width="0.1" style="-webkit-tap-highlight-color: rgba(0, 0, 0, 0);"></path><circle cx="37.68240888334651" cy="1.5" r="1" fill="#ff0000" stroke="#2a2a2a" style="-webkit-tap-highlight-color: rgba(0, 0, 0, 0);"></circle><path fill="#ff0000" stroke="#2a2a2a" d="M0,0L0.15,0.1L0.85,0.1L1,0L0.85,-0.1L0.15,-0.1Z" transform="matrix(10,0,0,10,57.8919,1.5)" stroke-width="0.1" style="-webkit-tap-highlight-color: rgba(0, 0, 0, 0);"></path><path fill="#ff0000" stroke="#2a2a2a" d="M0,0L0.15,0.1L0.85,0.1L1,0L0.85,-0.1L0.15,-0.1Z" transform="matrix(-1.7365,9.8481,-9.8481,-1.7365,68.7601,1.576)" stroke-width="0.1" style="-webkit-tap-highlight-color: rgba(0, 0, 0, 0);"></path><path fill="#ff0000" stroke="#2a2a2a" d="M0,0L0.15,0.1L0.85,0.1L1,0L0.85,-0.1L0.15,-0.1Z" transform="matrix(-1.7365,9.8481,-9.8481,-1.7365,67.0236,11.576)" stroke-width="0.1" style="-webkit-tap-highlight-color: rgba(0, 0, 0, 0);"></path><path fill="#ff0000" stroke="#2a2a2a" d="M0,0L0.15,0.1L0.85,0.1L1,0L0.85,-0.1L0.15,-0.1Z" transform="matrix(10,0,0,10,54.4189,21.5)" stroke-width="0.1" style="-webkit-tap-highlight-color: rgba(0, 0, 0, 0);"></path><path fill="#ff0000" stroke="#2a2a2a" d="M0,0L0.15,0.1L0.85,0.1L1,0L0.85,-0.1L0.15,-0.1Z" transform="matrix(-1.7365,9.8481,-9.8481,-1.7365,55.2871,11.576)" stroke-width="0.1" style="-webkit-tap-highlight-color: rgba(0, 0, 0, 0);"></path><path fill="#ff0000" stroke="#2a2a2a" d="M0,0L0.15,0.1L0.85,0.1L1,0L0.85,-0.1L0.15,-0.1Z" transform="matrix(-1.7365,9.8481,-9.8481,-1.7365,57.0236,1.576)" stroke-width="0.1" style="-webkit-tap-highlight-color: rgba(0, 0, 0, 0);"></path><path fill="#ff0000" stroke="#2a2a2a" d="M0,0L0.15,0.1L0.85,0.1L1,0L0.85,-0.1L0.15,-0.1Z" transform="matrix(10,0,0,10,56.1554,11.5)" stroke-width="0.1" style="-webkit-tap-highlight-color: rgba(0, 0, 0, 0);"></path><circle cx="54.15537243668512" cy="1.5" r="1" fill="#ff0000" stroke="#2a2a2a" style="-webkit-tap-highlight-color: rgba(0, 0, 0, 0);"></circle><path fill="#888888" stroke="none" d="M17.5,19.508V8.626H13.501V19.506999999999998C12.097,20.233999999999998,11.126,21.685,11.126,23.375999999999998C11.126,25.791999999999998,13.084999999999999,27.750999999999998,15.501,27.750999999999998S19.875999999999998,25.791999999999998,19.875999999999998,23.375999999999998C19.876,21.686,18.905,20.234,17.5,19.508ZM20.5,5.249C20.5,2.4919999999999995,18.256,0.24899999999999967,15.498999999999999,0.24899999999999967S10.500999999999998,2.493,10.500999999999998,5.249V17.975C9.003999999999998,19.348000000000003,8.124999999999998,21.289,8.124999999999998,23.375C8.124999999999998,27.441,11.434999999999999,30.752,15.500999999999998,30.752S22.874999999999996,27.441,22.874999999999996,23.375C22.874999999999996,21.289,21.996999999999996,19.346,20.499999999999996,17.973V5.249ZM20.875,23.377C20.875,26.34,18.465,28.75,15.5,28.75C12.538,28.75,10.126999999999999,26.34,10.126999999999999,23.377C10.126999999999999,21.582,11.023,19.933999999999997,12.502999999999998,18.939V5.251C12.502999999999998,3.5970000000000004,13.845999999999998,2.2510000000000003,15.499999999999998,2.2510000000000003S18.5,3.596,18.5,5.251V18.939C19.979,19.934,20.875,21.582,20.875,23.377Z" transform="matrix(0.4688,0,0,0.4688,71.2344,55.2346)" stroke-width="2.1333333333333333" style="-webkit-tap-highlight-color: rgba(0, 0, 0, 0);"></path><path fill="#888888" stroke="none" d="M15.5,2.374C8.251,2.375,2.376,8.251,2.374,15.5C2.376,22.748,8.251,28.623,15.5,28.627C22.749,28.622999999999998,28.624000000000002,22.747999999999998,28.625,15.499999999999998C28.624,8.251,22.749,2.375,15.5,2.374ZM15.5,25.623C9.909,25.615,5.385,21.09,5.375,15.5C5.385,9.909,9.909,5.384,15.5,5.374C21.09,5.3839999999999995,25.615000000000002,9.908999999999999,25.624000000000002,15.498999999999999C25.615,21.09,21.091,25.615,15.5,25.623ZM8.625,15.5C8.624,14.948,8.177,14.501,7.6240000000000006,14.5C7.071000000000001,14.5,6.6240000000000006,14.948,6.6240000000000006,15.5C6.6240000000000006,16.053,7.073,16.5,7.6240000000000006,16.5C8.176,16.5,8.624,16.053,8.625,15.5ZM8.179,18.572C7.7010000000000005,18.849,7.537,19.461,7.814,19.939C8.089,20.418,8.703,20.58,9.179,20.304C9.658,20.029,9.822000000000001,19.416999999999998,9.546,18.936999999999998C9.27,18.461,8.658,18.297,8.179,18.572ZM9.18,10.696C8.701,10.42,8.09,10.584,7.814,11.062S7.703,12.152,8.179,12.427999999999999C8.658,12.703999999999999,9.269,12.540999999999999,9.546,12.062C9.821,11.584,9.657,10.973,9.18,10.696ZM22.822,12.428C23.3,12.153,23.465,11.540000000000001,23.188,11.062000000000001C22.913,10.584000000000001,22.298,10.420000000000002,21.822,10.696000000000002C21.343,10.974000000000002,21.18,11.586000000000002,21.456,12.063000000000002C21.732,12.54,22.344,12.705,22.822,12.428ZM12.062,21.455C11.584,21.18,10.972999999999999,21.343999999999998,10.696,21.822C10.421,22.301,10.584999999999999,22.912,11.062,23.186999999999998C11.54,23.464,12.152999999999999,23.298,12.427,22.822C12.704,22.344,12.54,21.732,12.062,21.455ZM12.062,9.545C12.540999999999999,9.269,12.703999999999999,8.657,12.427999999999999,8.179C12.152,7.7010000000000005,11.54,7.537,11.062,7.813000000000001S10.42,8.701,10.696,9.179C10.973,9.658,11.584,9.822,12.062,9.545ZM22.823,18.572C22.343,18.297,21.731,18.461,21.456,18.936999999999998C21.181,19.415999999999997,21.344,20.028999999999996,21.823,20.304C22.3,20.578999999999997,22.912,20.416999999999998,23.188,19.939C23.464,19.461,23.3,18.848,22.823,18.572ZM19.938,7.813C19.461,7.537,18.846999999999998,7.702,18.573,8.179C18.298000000000002,8.659,18.462,9.27,18.939,9.546S20.028,9.658,20.305,9.18C20.581,8.702,20.418,8.089,19.938,7.813ZM23.378,14.5C22.824,14.502,22.377,14.95,22.377,15.5C22.378,16.052,22.825,16.5,23.378,16.5C23.929,16.5,24.378,16.053,24.378,15.5C24.378,14.949,23.929,14.5,23.378,14.5ZM15.501,6.624C14.949,6.624,14.501,7.072,14.501,7.624L14.035,14.966999999999999L11.031,16.927C10.553,17.204,10.389000000000001,17.816,10.666,18.291999999999998C10.941,18.770999999999997,11.555,18.935,12.031,18.659L15.336,16.983C15.39,16.99,15.444,17,15.501,17C16.329,17,17.000999999999998,16.329,17.000999999999998,15.5L16.500999999999998,7.624C16.501,7.072,16.053,6.624,15.501,6.624ZM15.501,22.377C14.949,22.377,14.501,22.823999999999998,14.501,23.377S14.949,24.377,15.501,24.377S16.500999999999998,23.93,16.500999999999998,23.377S16.053,22.377,15.501,22.377ZM18.939,21.455C18.46,21.732,18.296,22.343999999999998,18.573,22.822C18.848,23.299,19.461000000000002,23.465,19.939,23.186999999999998C20.417,22.912,20.581,22.298,20.305,21.822C20.028,21.344,19.417,21.18,18.939,21.455Z" transform="matrix(0.4688,0,0,0.4688,89.2341,55.2346)" stroke-width="2.1333333333333333" style="-webkit-tap-highlight-color: rgba(0, 0, 0, 0);"></path><path fill="#888888" stroke="none" d="M24.345,13.904C24.363999999999997,13.709,24.375,13.512,24.375,13.313C24.375,9.861,21.576999999999998,7.063000000000001,18.125,7.063000000000001C15.446,7.063000000000001,13.167,8.752,12.277999999999999,11.122C11.688999999999998,10.475999999999999,10.848999999999998,10.063,9.905999999999999,10.063C8.127999999999998,10.063,6.686999999999999,11.504000000000001,6.686999999999999,13.282C6.686999999999999,13.492,6.709999999999999,13.697,6.749,13.895C4.377,14.286,2.5619999999999994,16.331,2.5619999999999994,18.813C2.5619999999999994,21.575,4.800999999999999,23.813,7.561999999999999,23.813H9.873999999999999C9.748,23.546999999999997,9.674,23.256999999999998,9.674,22.954C9.674,22.419,9.882,21.914,10.261,21.539L14.585999999999999,17.21C14.960999999999999,16.833000000000002,15.463,16.625,15.998999999999999,16.625C16.538999999999998,16.625,17.041,16.835,17.416,17.212L21.739,21.541C22.116,21.914,22.324,22.419,22.324,22.954C22.324,23.258,22.251,23.548000000000002,22.124000000000002,23.813000000000002H23.436000000000003C26.198000000000004,23.813000000000002,28.436000000000003,21.575000000000003,28.436000000000003,18.813000000000002C28.438,16.362,26.672,14.332,24.345,13.904ZM16.706,17.916C16.512999999999998,17.721,16.256,17.625,16,17.625S15.488,17.721,15.293,17.916L10.966,22.246000000000002C10.575999999999999,22.635,10.577,23.271,10.966999999999999,23.660000000000004L11.523,24.215000000000003C11.913,24.604000000000003,12.487,24.664000000000005,12.799,24.352000000000004S13.366999999999999,24.233000000000004,13.366999999999999,24.784000000000002V26.022000000000002C13.366999999999999,26.571,13.818,27.022000000000002,14.366999999999999,27.022000000000002H17.631999999999998C18.182999999999996,27.022000000000002,18.631999999999998,26.571,18.631999999999998,26.022000000000002V24.784000000000002C18.631999999999998,24.233000000000004,18.887999999999998,24.040000000000003,19.200999999999997,24.352000000000004C19.512999999999998,24.664000000000005,20.087999999999997,24.604000000000003,20.476999999999997,24.215000000000003L21.032999999999998,23.660000000000004C21.423,23.271000000000004,21.423,22.635000000000005,21.034,22.246000000000002L16.706,17.916Z" transform="matrix(0.4688,0,0,0.4688,17.2338,38.0538)" stroke-width="2.1333333333333333" style="-webkit-tap-highlight-color: rgba(0, 0, 0, 0);"></path><path fill="#888888" stroke="none" d="M16,16M20,22.92820323027551A8,8,0,1,0,12,22.92820323027551A2,2,0,0,1,10,26.392304845413264A12,12,0,1,1,22,26.392304845413264A2,2,0,1,1,20,22.92820323027551M16,16M18,18V26A2,2,0,0,1,14,26V18A2,2,0,1,1,18,18" transform="matrix(0.4688,0,0,0.4688,89.5,37.496)" stroke-width="2.1333333333333333" style="-webkit-tap-highlight-color: rgba(0, 0, 0, 0);"></path><path fill="#888888" stroke="none" d="M24.249,15.499C24.24,20.331,20.331,24.240000000000002,15.498999999999999,24.249000000000002C12.983999999999998,24.249000000000002,10.730999999999998,23.185000000000002,9.133999999999999,21.486000000000004L11.201999999999998,20.044000000000004L3.3009999999999984,16.341000000000005L4.044999999999998,25.035000000000004L6.237999999999998,23.506000000000004C8.481999999999998,26.100000000000005,11.799999999999997,27.748000000000005,15.497999999999998,27.748000000000005C22.264999999999997,27.748000000000005,27.747,22.266000000000005,27.747,15.499000000000004H24.249ZM15.499,6.75C18.015,6.75,20.268,7.8149999999999995,21.866,9.514L19.798,10.956999999999999L27.698999999999998,14.658L26.953,5.965L24.761,7.494C22.516,4.9,19.198999999999998,3.2489999999999997,15.498999999999999,3.2489999999999997C8.734,3.25,3.25,8.734,3.249,15.499H6.75C6.758,10.668,10.668,6.758,15.499,6.75Z" transform="matrix(0.4688,0,0,0.4688,17.2333,55.2336)" stroke-width="2.1333333333333333" style="-webkit-tap-highlight-color: rgba(0, 0, 0, 0);"></path><path fill="#888888" stroke="none" d="M12.75,25.498H18.25V20.334000000000003H12.75V25.498ZM15.5,28.166C17.394,28.166,17.983,27.139,18.167,26.5H12.833000000000002C13.017,27.139,13.606,28.166,15.5,28.166ZM15.5,2.833C11.634,2.833,8.5,5.9670000000000005,8.5,9.833C8.5,13.692,12.445,14.77,12.722999999999999,19.332H13.994C13.985,19.307000000000002,13.97,19.283,13.965,19.254L11.965,8.256C11.922,8.011000000000001,12.064,7.771,12.3,7.6930000000000005C12.537,7.615,12.794,7.719,12.905000000000001,7.9430000000000005L13.458000000000002,9.049000000000001L14.011000000000003,7.943000000000001C14.095000000000002,7.7730000000000015,14.268000000000002,7.666000000000001,14.457000000000003,7.666000000000001C14.646000000000003,7.666000000000001,14.819000000000003,7.7730000000000015,14.903000000000002,7.943000000000001L15.456000000000003,9.049000000000001L16.009000000000004,7.943000000000001C16.093000000000004,7.7730000000000015,16.266000000000005,7.666000000000001,16.457000000000004,7.666000000000001C16.646000000000004,7.666000000000001,16.817000000000004,7.7730000000000015,16.903000000000006,7.943000000000001L17.457000000000004,9.049000000000001L18.010000000000005,7.943000000000001C18.121000000000006,7.719000000000001,18.378000000000004,7.614000000000002,18.614000000000004,7.693000000000001S18.991000000000003,8.011000000000001,18.947000000000003,8.256000000000002L16.948000000000004,19.254C16.943000000000005,19.283,16.928000000000004,19.307000000000002,16.919000000000004,19.332H18.275000000000006C18.553000000000004,14.77,22.499000000000006,13.693000000000001,22.499000000000006,9.833C22.5,5.968,19.366,2.833,15.5,2.833ZM17.458,10.666C17.267,10.666,17.093999999999998,10.559000000000001,17.011999999999997,10.391L16.458,9.285L15.904999999999998,10.391C15.818999999999997,10.559,15.647999999999998,10.666,15.458999999999998,10.666C15.267999999999997,10.666,15.094999999999997,10.559000000000001,15.009999999999998,10.391L14.456999999999997,9.285L13.903999999999996,10.391C13.819999999999997,10.559,13.646999999999997,10.666,13.457999999999997,10.666C13.445999999999996,10.666,13.432999999999996,10.666,13.420999999999996,10.665000000000001L14.874999999999996,18.666H16.041999999999998L17.496,10.665000000000001C17.482,10.666,17.47,10.666,17.458,10.666Z" transform="matrix(0.4688,0,0,0.4688,35.2341,55.2341)" stroke-width="2.1333333333333333" style="-webkit-tap-highlight-color: rgba(0, 0, 0, 0);"></path><path fill="#888888" stroke="none" d="M2.5,7H4.5A15,15,0,0,1,4.5,27H2.5ZM-7.5,17M6.222011200116546,10.94141859641422L15.631494000345292,7.516646937291159L16.31553428699663,9.396032178862974L6.906051486767879,12.820803837986034L6.222011200116546,10.94141859641422ZM-7.5,17M20.333092583724415,5.805404999473016L25.03379466313674,4.094489362413686L25.717834949788077,5.9738746039855055L21.017132870375754,7.684790241044833L20.333092583724415,5.805404999473016ZM-7.5,17M7.06560463677455,13.416264300318584L16.926841607806914,11.677462159165753L17.274137963140774,13.64707766519017L7.41290099210841,15.385879806342995L7.06560463677455,13.416264300318584ZM-7.5,17M21.854166388319236,10.80864185764802L26.780551623242303,9.939987223367272L27.127847978576163,11.909602729391686L22.201462743653096,12.77825736367243L21.854166388319236,10.80864185764802ZM-7.5,17M7.466629547095744,16.000000000000004L17.479991993593583,16.000000000000004L17.479991993593583,18.000000000000004L7.466629547095744,18.000000000000004L7.466629547095744,16.000000000000007ZM-7.5,17M22.483328701129885,16.000000000000004L27.48571136907178,16L27.48571136907178,18L22.483328701129885,18L22.483328701129885,16.000000000000004ZM-7.5,17M7.41290099210841,18.614120193657005L17.274137963140774,20.35292233480983L16.926841607806914,22.322537840834244L7.06560463677455,20.58373569968142L7.41290099210841,18.614120193657005ZM-7.5,17M22.201462743653096,21.221742636327566L27.127847978576163,22.09039727060831L26.780551623242303,24.060012776632725L21.854166388319236,23.19135814235198L22.201462743653096,21.221742636327566ZM-7.5,17M6.906051486767879,21.179196162013966L16.31553428699663,24.603967821137026L15.631494000345292,26.483353062708844L6.222011200116546,23.058581403585784L6.906051486767879,21.17919616201397ZM-7.5,17M21.017132870375754,26.31520975895517L25.717834949788077,28.026125396014493L25.03379466313674,29.90551063758631L20.333092583724415,28.19459500052698L21.017132870375754,26.315209758955163ZM-7.5,17" transform="matrix(0.4688,0,0,0.4688,50.3087,38.0313)" stroke-width="2.1333333333333333" style="-webkit-tap-highlight-color: rgba(0, 0, 0, 0);"></path><rect x="0" y="0" width="32" height="32" r="0" rx="5" ry="5" fill="#000000" stroke="#888888" fill-opacity="0" stroke-width="6.4" transform="matrix(0.4688,0,0,0.4688,71.5,55.5)" style="-webkit-tap-highlight-color: rgba(0, 0, 0, 0); fill-opacity: 0;"></rect><rect x="0" y="0" width="32" height="32" r="0" rx="5" ry="5" fill="#000000" stroke="#888888" fill-opacity="0" stroke-width="6.4" transform="matrix(0.4688,0,0,0.4688,89.5,55.5)" style="-webkit-tap-highlight-color: rgba(0, 0, 0, 0); fill-opacity: 0;"></rect><rect x="0" y="0" width="32" height="32" r="0" rx="5" ry="5" fill="#000000" stroke="#888888" fill-opacity="0" stroke-width="6.4" transform="matrix(0.4688,0,0,0.4688,17.5,37.5)" style="-webkit-tap-highlight-color: rgba(0, 0, 0, 0); fill-opacity: 0;"></rect><rect x="0" y="0" width="32" height="32" r="0" rx="5" ry="5" fill="#000000" stroke="#888888" fill-opacity="0" stroke-width="6.4" transform="matrix(0.4688,0,0,0.4688,53.5,37.5)" style="-webkit-tap-highlight-color: rgba(0, 0, 0, 0); fill-opacity: 0;"></rect><rect x="0" y="0" width="32" height="32" r="0" rx="5" ry="5" fill="#000000" stroke="#888888" fill-opacity="0" stroke-width="6.4" transform="matrix(0.4688,0,0,0.4688,89.5,37.5)" style="-webkit-tap-highlight-color: rgba(0, 0, 0, 0); fill-opacity: 0;"></rect><rect x="0" y="0" width="32" height="32" r="0" rx="5" ry="5" fill="#000000" stroke="#888888" fill-opacity="0" stroke-width="6.4" transform="matrix(0.4688,0,0,0.4688,17.5,55.5)" style="-webkit-tap-highlight-color: rgba(0, 0, 0, 0); fill-opacity: 0;"></rect><rect x="0" y="0" width="32" height="32" r="0" rx="5" ry="5" fill="#000000" stroke="#888888" fill-opacity="0" stroke-width="6.4" transform="matrix(0.4688,0,0,0.4688,35.5,55.5)" style="-webkit-tap-highlight-color: rgba(0, 0, 0, 0); fill-opacity: 0;"></rect><text x="74.89185421335442" y="6" text-anchor="start" font="10px &quot;Arial&quot;" stroke="#00ff00" fill="#ff0000" font-size="8px" font-weight="800" stroke-width="0px" style="-webkit-tap-highlight-color: rgba(0, 0, 0, 0); text-anchor: start; font-style: normal; font-variant: normal; font-weight: 800; font-size: 8px; line-height: normal; font-family: Arial; -webkit-user-select: none;"><tspan dy="0" style="-webkit-tap-highlight-color: rgba(0, 0, 0, 0);">Heating</tspan></text><text x="74.89185421335442" y="11.75" text-anchor="start" font="10px &quot;Arial&quot;" stroke="#00ff00" fill="#ff0000" font-size="8px" font-weight="800" stroke-width="0px" style="-webkit-tap-highlight-color: rgba(0, 0, 0, 0); text-anchor: start; font-style: normal; font-variant: normal; font-weight: 800; font-size: 8px; line-height: normal; font-family: Arial; -webkit-user-select: none;"><tspan dy="0" style="-webkit-tap-highlight-color: rgba(0, 0, 0, 0);">OverHeat</tspan></text><text x="74.89185421335442" y="17.5" text-anchor="start" font="10px &quot;Arial&quot;" stroke="#00ff00" fill="#ff0000" font-size="8px" font-weight="800" stroke-width="0px" style="-webkit-tap-highlight-color: rgba(0, 0, 0, 0); text-anchor: start; font-style: normal; font-variant: normal; font-weight: 800; font-size: 8px; line-height: normal; font-family: Arial; -webkit-user-select: none;"><tspan dy="0" style="-webkit-tap-highlight-color: rgba(0, 0, 0, 0);">Edit</tspan></text><text x="74.89185421335442" y="23.25" text-anchor="start" font="10px &quot;Arial&quot;" stroke="#00ff00" fill="#ff0000" font-size="8px" font-weight="800" stroke-width="0px" style="-webkit-tap-highlight-color: rgba(0, 0, 0, 0); text-anchor: start; font-style: normal; font-variant: normal; font-weight: 800; font-size: 8px; line-height: normal; font-family: Arial; -webkit-user-select: none;"><tspan dy="0" style="-webkit-tap-highlight-color: rgba(0, 0, 0, 0);">Filtering</tspan></text><text x="27" y="29" text-anchor="start" font="10px &quot;Arial&quot;" stroke="#00ff00" fill="#ff0000" font-size="8px" font-weight="800" stroke-width="0px" style="-webkit-tap-highlight-color: rgba(0, 0, 0, 0); text-anchor: start; font-style: normal; font-variant: normal; font-weight: 800; font-size: 8px; line-height: normal; font-family: Arial; -webkit-user-select: none;"><tspan dy="0" style="-webkit-tap-highlight-color: rgba(0, 0, 0, 0);">Air HI</tspan></text><text x="63" y="29" text-anchor="start" font="10px &quot;Arial&quot;" stroke="#00ff00" fill="#ff0000" font-size="8px" font-weight="800" stroke-width="0px" style="-webkit-tap-highlight-color: rgba(0, 0, 0, 0); text-anchor: start; font-style: normal; font-variant: normal; font-weight: 800; font-size: 8px; line-height: normal; font-family: Arial; -webkit-user-select: none;"><tspan dy="0" style="-webkit-tap-highlight-color: rgba(0, 0, 0, 0);">Jets Hi</tspan></text><text x="63" y="34.75" text-anchor="start" font="10px &quot;Arial&quot;" stroke="#00ff00" fill="#ff0000" font-size="8px" font-weight="800" stroke-width="0px" style="-webkit-tap-highlight-color: rgba(0, 0, 0, 0); text-anchor: start; font-style: normal; font-variant: normal; font-weight: 800; font-size: 8px; line-height: normal; font-family: Arial; -webkit-user-select: none;"><tspan dy="0" style="-webkit-tap-highlight-color: rgba(0, 0, 0, 0);">Jets Lo</tspan></text><text x="73.39185421335442" y="3" text-anchor="start" font="10px &quot;Arial&quot;" stroke="#00ff00" fill="#ff0000" font-size="8px" font-weight="800" stroke-width="0px" style="-webkit-tap-highlight-color: rgba(0, 0, 0, 0); text-anchor: start; font-style: normal; font-variant: normal; font-weight: 800; font-size: 8px; line-height: normal; font-family: Arial; -webkit-user-select: none;"><tspan dy="0" style="-webkit-tap-highlight-color: rgba(0, 0, 0, 0);">AM</tspan></text></svg>
