<?xml version="1.0" encoding="UTF-8" standalone="no"?>
<!-- Created with Inkscape (http://www.inkscape.org/) -->

<svg
   xmlns:dc="http://purl.org/dc/elements/1.1/"
   xmlns:cc="http://creativecommons.org/ns#"
   xmlns:rdf="http://www.w3.org/1999/02/22-rdf-syntax-ns#"
   xmlns:svg="http://www.w3.org/2000/svg"
   xmlns="http://www.w3.org/2000/svg"
   xmlns:sodipodi="http://sodipodi.sourceforge.net/DTD/sodipodi-0.dtd"
   xmlns:inkscape="http://www.inkscape.org/namespaces/inkscape"
   id="svg2"
   version="1.1"
   inkscape:version="0.91 r13725"
   width="400"
   height="200"
   xml:space="preserve"
   sodipodi:docname="frame0.svg"><metadata
     id="metadata8"><rdf:RDF><cc:Work
         rdf:about=""><dc:format>image/svg+xml</dc:format><dc:type
           rdf:resource="http://purl.org/dc/dcmitype/StillImage" /><dc:title></dc:title></cc:Work></rdf:RDF></metadata><defs
     id="defs6"><clipPath
       clipPathUnits="userSpaceOnUse"
       id="clipPath16"><path
         d="M 0,792 612,792 612,0 0,0 0,792 z"
         id="path18"
         inkscape:connector-curvature="0" /></clipPath><clipPath
       clipPathUnits="userSpaceOnUse"
       id="clipPath24"><path
         d="m 117.384,358.607 35.658,0 0,-35.658 -35.658,0 0,35.658 z"
         id="path26"
         inkscape:connector-curvature="0" /></clipPath><clipPath
       clipPathUnits="userSpaceOnUse"
       id="clipPath40"><path
         d="m 189.425,358.592 35.656,0 0,-35.658 -35.656,0 0,35.658 z"
         id="path42"
         inkscape:connector-curvature="0" /></clipPath><clipPath
       clipPathUnits="userSpaceOnUse"
       id="clipPath56"><path
         d="m 261.452,358.588 35.656,0 0,-35.658 -35.656,0 0,35.658 z"
         id="path58"
         inkscape:connector-curvature="0" /></clipPath><clipPath
       clipPathUnits="userSpaceOnUse"
       id="clipPath72"><path
         d="m 333.479,358.607 35.659,0 0,-35.658 -35.659,0 0,35.658 z"
         id="path74"
         inkscape:connector-curvature="0" /></clipPath><clipPath
       clipPathUnits="userSpaceOnUse"
       id="clipPath376"><path
         d="m 125.2,307.362 168.658,0 0,-9.312 -168.658,0 0,9.312 z"
         id="path378"
         inkscape:connector-curvature="0" /></clipPath><clipPath
       clipPathUnits="userSpaceOnUse"
       id="clipPath3191"><path
         inkscape:connector-curvature="0"
         d="m 0,432 748.8,0 0,-432 L 0,0 0,432 z"
         id="path3193" /></clipPath><clipPath
       clipPathUnits="userSpaceOnUse"
       id="clipPath3199"><path
         inkscape:connector-curvature="0"
         d="m 526.857,180.822 35.658,0 0,-35.658 -35.658,0 0,35.658 z"
         id="path3201" /></clipPath></defs><sodipodi:namedview
     pagecolor="#ffffff"
     bordercolor="#666666"
     borderopacity="1"
     objecttolerance="10"
     gridtolerance="10"
     guidetolerance="10"
     inkscape:pageopacity="0"
     inkscape:pageshadow="2"
     inkscape:window-width="1247"
     inkscape:window-height="776"
     id="namedview4"
     showgrid="true"
     showborder="true"
     inkscape:zoom="1.9070707"
     inkscape:cx="192.36191"
     inkscape:cy="40.202196"
     inkscape:window-x="33"
     inkscape:window-y="24"
     inkscape:window-maximized="1"
     inkscape:current-layer="g10"
     inkscape:snap-text-baseline="true"><inkscape:grid
       type="xygrid"
       id="grid3233" /></sodipodi:namedview><g
     id="g10"
     inkscape:groupmode="layer"
     inkscape:label="icon"
     transform="matrix(1.25,0,0,-1.25,0,200)"><g
       id="button-light-art"
       transform="translate(-3.2,-76.8)"><path
         inkscape:connector-curvature="0"
         id="path34"
         style="opacity:0.60000598;fill:#373d42;fill-opacity:1;fill-rule:nonzero;stroke:none"
         d="m 37.082925,110.05688 c 0,-8.1837 -6.804553,-14.818107 -15.197944,-14.818107 -8.392538,0 -15.1962392,6.634407 -15.1962392,14.818107 0,8.1837 6.8037012,14.81977 15.1962392,14.81977 8.393391,0 15.197944,-6.63607 15.197944,-14.81977" /><path
         d="m 21.8849,123.21438 c -7.439577,0 -13.4914782,-5.90297 -13.4914782,-13.15743 0,-7.25445 6.0519012,-13.155764 13.4914782,-13.155764 7.440429,0 13.493183,5.901314 13.493183,13.155764 0,7.25446 -6.052754,13.15743 -13.493183,13.15743 m 0,-29.637876 c -9.319076,0 -16.9010002,7.392426 -16.9010002,16.480446 0,9.08802 7.5819242,16.48211 16.9010002,16.48211 9.320781,0 16.902705,-7.39409 16.902705,-16.48211 0,-9.08802 -7.581924,-16.480446 -16.902705,-16.480446"
         style="fill:#4e5b62;fill-opacity:1;fill-rule:nonzero;stroke:none"
         id="path86"
         inkscape:connector-curvature="0" /><path
         d="m 37.082929,110.05688 c 0,-8.1837 -6.804553,-14.818107 -15.197944,-14.818107 -8.392538,0 -15.1962392,6.634407 -15.1962392,14.818107 0,8.1837 6.8037012,14.81977 15.1962392,14.81977 8.393391,0 15.197944,-6.63607 15.197944,-14.81977 z"
         style="fill:none;stroke:#91d9f8;stroke-width:1.68341732;stroke-linecap:butt;stroke-linejoin:miter;stroke-miterlimit:10;stroke-opacity:1;stroke-dasharray:none"
         id="path102"
         inkscape:connector-curvature="0" /><path
         d="m 19.77398,103.51473 c -0.0179,-0.01 -0.0358,-0.0183 -0.05626,-0.0299 -0.03921,0.044 -0.05881,0.0964 -0.05796,0.15958 0.0179,-0.0416 0.05711,-0.0848 0.114219,-0.12966 m 3.511808,-0.25351 c 0.324757,-0.003 0.600075,0.14463 0.933356,0.14546 0.0026,-0.003 0.006,-0.007 0.0077,-0.0108 -0.01534,-0.005 -0.0341,-0.009 -0.05029,-0.0141 -0.517395,-0.1255 -1.521499,-0.24104 -2.454003,-0.20779 0.65889,-0.0399 1.343351,-0.0308 2.086627,0.11636 l 0.363114,0.0898 c -0.841299,-0.26431 -2.072137,-0.27013 -3.072831,-0.17953 -0.09462,0.015 -0.207129,0.0249 -0.335838,0.0349 -0.0094,8.3e-4 -0.0179,0.002 -0.02642,0.003 -0.1253,0.0324 -0.269352,0.0557 -0.437271,0.0598 -0.06478,0.0108 -0.1253,0.0224 -0.184967,0.0332 -0.03495,0.015 -0.07075,0.0283 -0.103138,0.044 -0.01364,0.003 -0.02813,0.005 -0.04091,0.008 0.0077,8.3e-4 0.01364,8.3e-4 0.02046,0.002 0.0077,-0.004 0.01364,-0.007 0.02046,-0.0108 0.1611,-0.0332 0.344362,-0.0565 0.512281,-0.0881 0.184966,-0.0241 0.371638,-0.0432 0.559161,-0.064 -0.196047,0.0258 -0.382718,0.0598 -0.550637,0.10556 0.906932,-0.13881 1.842846,-0.1654 2.753189,-0.0682 m -3.169151,-0.34244 c -0.02301,-0.003 -0.04688,-0.007 -0.07075,-0.01 -0.04347,0.0133 -0.07842,0.0258 -0.103138,0.0341 0.0051,0.002 0.01193,0.003 0.0179,0.005 0.04603,-0.007 0.09717,-0.0174 0.155986,-0.0291 m 1.842847,-0.36571 c -0.09291,0.002 -0.184115,0.003 -0.275319,0.007 -0.118481,0.005 -0.236962,0.0133 -0.355443,0.0233 l -0.2685,0.0266 c 0.07586,-0.0141 0.159395,-0.0141 0.237814,-0.0249 -0.292366,0.0233 -0.582176,0.0524 -0.864314,0.0864 l -0.405733,0.0573 c -0.08524,0.0141 -0.171328,0.0291 -0.256566,0.0432 0.0068,0.0399 0.02557,0.0731 0.0537,0.10224 0.228438,-0.0864 0.656333,-0.19283 1.025414,-0.19782 0.09547,-0.007 0.190933,-0.0125 0.286399,-0.0191 0.262534,-0.0457 0.542967,-0.084 0.822548,-0.10389 m 1.756756,-0.29175 c 0.10399,0.02 0.202866,0.0465 0.288957,0.0881 0.05711,0.0125 0.120185,0.0191 0.17559,0.0341 0.02898,-0.003 0.05114,0.002 0.06904,0.0116 -0.06734,-0.0756 -0.275319,-0.1122 -0.53359,-0.13382 m -0.719409,-0.0582 c 0.0341,0.002 0.06819,0.002 0.101433,0.006 -0.01108,-0.002 -0.02301,-0.003 -0.03495,-0.004 -0.02216,-8.4e-4 -0.04432,-8.4e-4 -0.06649,-0.002 m -0.539557,-0.0565 0.0026,0 c -0.02983,-0.009 -0.05881,-0.0183 -0.07927,-0.0307 0.02046,0.0116 0.04773,0.0216 0.07671,0.0307 m 1.414099,-1.17444 c -0.02728,0.0108 -0.04347,0.0249 -0.07671,0.0316 -0.01023,0.002 -0.01534,0 -0.02472,8.4e-4 0.0068,0.004 0.0162,0.008 0.02216,0.0116 0.03069,-0.01 0.06222,-0.0241 0.09291,-0.0407 -0.0043,-8.3e-4 -0.0094,-0.002 -0.01364,-0.003 m -0.06649,-0.59179 c 0.06137,0.0407 0.127005,0.10888 0.174738,0.18867 0.0051,0.008 0.0085,0.0166 0.01364,0.0249 0.01108,0.0208 0.02046,0.0407 0.02728,0.0623 0.02301,0.0565 0.0358,0.11304 0.02216,0.16624 0.0085,0.002 0.01705,0.005 0.02557,0.007 -0.03495,-0.29091 -0.149167,-0.39979 -0.263386,-0.44883 m -1.195037,-0.3092 0.369933,0.0997 c 0.128709,0.0349 0.257419,0.064 0.385276,0.10224 l 0.30089,0.0798 c 0.006,-0.007 0.0179,-0.007 0.02728,-0.008 -0.04773,-0.01 -0.09035,-0.0166 -0.120185,-0.0291 -0.345214,-0.0881 -0.664005,-0.19615 -0.96319,-0.24436 m -1.627194,-0.009 8.52e-4,0 c 0.251452,-0.0391 0.502904,-0.0532 0.753504,-0.0499 -0.2506,-0.003 -0.502052,0.0108 -0.754356,0.0499 m -2.134361,3.95969 c -0.01705,0.0582 -0.03495,0.12717 -0.05626,0.21361 0.01534,0.0133 0.02131,0.0216 0.02983,0.0308 0.01364,-0.0898 0.02728,-0.17122 0.04006,-0.23439 -0.0051,-0.004 -0.0094,-0.007 -0.01364,-0.01 m 6.486615,14.11577 c -0.01875,0.0133 -0.03665,0.0266 -0.0554,0.0399 l -0.06819,0.0565 c 0.04432,-0.0308 0.08098,-0.0648 0.123595,-0.0964 m -5.689639,-14.69509 c -0.052,0.0174 -0.09717,0.0332 -0.131267,0.0499 0.03154,0.0191 0.05796,0.0424 0.07331,0.0748 0.0068,0.007 0.01449,0.0125 0.02131,0.0208 0.01705,-0.044 0.05285,-0.079 0.100581,-0.10805 -0.01961,-0.0108 -0.04177,-0.0241 -0.06393,-0.0374 m -0.120186,-0.62089 c 0,0 0,8.4e-4 8.52e-4,8.4e-4 0,8.3e-4 -8.52e-4,0.002 -8.52e-4,0.002 l 0.01193,0.003 c 0.0026,-0.003 0.0051,-0.008 0.0068,-0.0116 -0.0043,0.002 -0.01449,0.003 -0.01875,0.005 m 3.925212,-0.23522 c -0.07075,-0.0125 -0.147462,-0.0241 -0.221619,-0.0366 -0.500347,-0.0507 -1.025414,-0.054 -1.530023,-0.0249 0.04432,8.3e-4 0.08779,0.002 0.132119,0.003 0.521657,-0.0183 1.075704,0.0208 1.619523,0.0582 m -0.550638,-0.007 0.0179,0 c -0.0077,0 -0.01619,-8.3e-4 -0.02387,-0.002 0.0026,0 0.0043,8.3e-4 0.006,0.002 m -0.277023,-0.39564 c 0.0375,8.4e-4 0.0733,0.004 0.109957,0.006 -0.06734,-0.006 -0.12871,-0.0125 -0.183262,-0.0224 -0.0051,-8.3e-4 -0.01108,-8.3e-4 -0.01705,-8.3e-4 0.02898,0.007 0.05711,0.0133 0.09035,0.0174 m -2.959465,0.0998 c 0.0358,0.0382 0.06649,0.0839 0.08183,0.14628 0.01705,-0.003 0.04262,-0.007 0.05967,-0.01 -0.03239,-0.0424 -0.06393,-0.0914 -0.09462,-0.14546 l -0.04688,0.009 z m 4.287473,-1.34401 c -0.0043,0.003 -0.01364,0.005 -0.0196,0.008 -0.0017,0.002 -0.0026,0.004 -0.0051,0.006 -0.0068,0.003 -0.0085,0.002 -0.01449,0.004 l 0.006,0.002 c 0.01108,-0.007 0.02216,-0.0116 0.03324,-0.0199 m -1.756756,3.13767 c 0.0051,8.3e-4 0.01023,0 0.01449,8.3e-4 -0.0043,-8.3e-4 -0.0094,0 -0.01449,-8.3e-4 m -2.546913,-1.92083 c -0.05029,0.0108 -0.0912,0.0208 -0.114219,0.0274 0.02642,0.0133 0.05455,0.0366 0.08183,0.0582 0.02131,-0.0133 0.04177,-0.0224 0.06222,-0.0274 -0.0094,-0.0208 -0.02046,-0.0366 -0.02983,-0.0582 m -0.381866,-0.25185 c 0.01193,-0.006 0.02472,-0.0141 0.0358,-0.0191 0.0017,-0.0174 0.0034,-0.0341 0.0051,-0.0515 -0.01023,-0.004 -0.01875,-0.01 -0.02898,-0.0158 -0.006,0.0291 -0.0068,0.0573 -0.01193,0.0864 m -0.02131,0.54691 c 0,0.004 0,0.007 8.53e-4,0.0108 0.01023,0.005 0.01875,0.01 0.03069,0.0141 8.53e-4,-0.0158 0.0017,-0.0299 0.0017,-0.0457 -0.0085,-0.004 -0.01705,-0.01 -0.02557,-0.015 0.0017,0.005 0.0026,0.008 0.0043,0.0141 -0.006,0.007 -0.0068,0.015 -0.01193,0.0216 m 0.0077,0.11886 c 0.0077,-0.007 0.01534,-0.0133 0.02301,-0.0208 0,-0.0141 8.52e-4,-0.0283 8.52e-4,-0.0424 -0.01023,0.002 -0.01875,0.004 -0.02728,0.006 0.0026,0.0183 8.53e-4,0.0399 0.0034,0.0573 m 0.793566,-1.53683 c -0.0077,-0.003 -0.0094,-0.008 -0.01619,-0.0116 -0.02983,-0.002 -0.04006,-0.009 -0.03921,-0.0199 -0.03324,0.0307 -0.06819,0.0607 -0.09802,0.0939 0.06222,-0.0125 0.126152,-0.0241 0.188376,-0.0349 -0.01023,-0.008 -0.02216,-0.0175 -0.03495,-0.0274 m 2.99356,-0.13632 c 0.0034,8.3e-4 0.0077,0.002 0.01108,0.003 0.01619,0 0.03239,0 0.04859,0.002 -0.0034,-8.3e-4 -0.006,-0.002 -0.0094,-0.002 -0.0162,-0.002 -0.03324,-0.003 -0.05029,-0.003 m -1.253851,-0.2028 c 0.06734,0.002 0.133823,0.0116 0.201161,0.0174 0.09717,0.007 0.194343,0.0116 0.291514,0.0241 0.06222,0.009 0.124448,0.0233 0.185819,0.0332 0.09121,0.0158 0.18241,0.0291 0.272762,0.049 0.01619,8.3e-4 0.03239,-8.3e-4 0.04944,0 -0.329871,-0.0748 -0.664857,-0.11636 -1.000694,-0.12384 m 0.866018,0.18369 c -0.0017,-8.3e-4 -0.0043,0 -0.006,0 l 0.0077,0 -0.0017,0 z m -1.381709,-0.14795 c -0.292366,0.0565 -0.582176,0.16706 -0.801237,0.23937 0.0733,-0.0166 0.146609,-0.0324 0.242076,-0.0573 l 0.279581,-0.0199 c 0.09035,-0.015 0.178999,-0.0274 0.260828,-0.0407 0.01534,-8.3e-4 0.02898,-0.002 0.04347,-0.002 -0.04432,0.009 -0.08694,0.0191 -0.130414,0.0299 l 0.02216,-0.002 c 0.293219,-0.015 0.586438,-0.0416 0.880509,-0.0574 -0.240371,-0.003 -0.498642,0.0116 -0.772257,0.0291 0.300891,-0.064 0.622238,-0.0972 0.898409,-0.0299 0.07927,-0.004 0.158543,8.3e-4 0.238667,0 -0.170476,-0.0332 -0.343509,-0.054 -0.518247,-0.0598 -0.05711,-0.0266 -0.1253,-0.0308 -0.190081,-0.0399 -0.150872,-0.003 -0.301743,-8.3e-4 -0.453467,0.0108 m 0.768848,-0.0997 c -0.527624,-0.0283 -1.057805,-0.0141 -1.555595,0.13382 -0.02216,0.007 -0.04091,0.0183 -0.06222,0.0266 -0.01534,0.0183 -0.02642,0.0333 -0.03921,0.049 0.148314,-0.0549 0.334985,-0.10057 0.53359,-0.10556 0.485005,-0.0873 1.017742,-0.0806 1.512975,-0.0241 -0.126152,-0.0274 -0.256566,-0.054 -0.389537,-0.0798 m -1.512976,0.0407 c -0.0051,0.006 -0.0094,0.0108 -0.01449,0.0166 0.121038,-0.0416 0.249747,-0.0731 0.382719,-0.10057 -0.132119,0.0175 -0.256567,0.0432 -0.368229,0.0839 m -0.325609,0.34577 c -0.0034,-0.004 -0.0094,-0.009 -0.01364,-0.0125 -0.01279,0.002 -0.01875,0.002 -0.03069,0.004 0.0051,0.004 0.0077,0.01 0.01449,0.0125 0.0077,0 0.02131,-0.003 0.02983,-0.004 m 0.09206,-0.0366 c -8.52e-4,0.002 -0.0017,0.004 -0.0026,0.006 -0.01449,0.008 -0.02983,0.0166 -0.04347,0.0233 0.01108,-8.3e-4 0.02387,-0.003 0.0358,-0.005 0.0017,-0.005 0.006,-0.0125 0.0077,-0.0183 0.006,-0.003 0.01108,-0.006 0.01619,-0.008 -0.0043,8.3e-4 -0.0094,0.002 -0.01364,0.002 m 0.09206,-0.074 c -0.03239,0.0158 -0.04603,0.0199 -0.0733,0.0316 -0.0043,0.009 -0.0051,0.0141 -0.0085,0.0216 l 0.04688,-0.006 c 0.101434,-0.0524 0.212243,-0.1014 0.3401,-0.13049 l -0.305152,0.0831 z m -0.04091,-0.0125 c 0.05711,-0.0266 0.121038,-0.044 0.184114,-0.0648 -0.05029,0.004 -0.09973,0.01 -0.149167,0.0158 -0.01364,0.0183 -0.02472,0.0333 -0.03495,0.049 m 0.0895,-0.1172 c -8.53e-4,8.3e-4 -0.0017,0.002 -0.0026,0.003 l 0.01449,-0.007 c 0.0017,-0.002 0.0043,-0.002 0.0068,-0.003 -0.006,0.003 -0.01279,0.004 -0.01875,0.007 m -0.297481,0.18535 c -8.52e-4,0.004 -0.0077,0.0133 -0.0085,0.0175 l 0.02983,-0.003 c -0.0068,-0.007 -0.01023,-0.01 -0.0179,-0.0166 l -0.0034,0.002 z m 0.323052,-0.19532 c -0.0077,0.002 -0.01534,0.005 -0.02301,0.007 -8.53e-4,8.3e-4 -0.0017,8.3e-4 -0.0017,0.002 0.0077,-0.003 0.01619,-0.006 0.02387,-0.009 l 8.52e-4,0 z m 1.22828,-0.0756 c 0.0043,0 0.0085,-8.3e-4 0.01279,0 -0.01193,-8.3e-4 -0.02472,-0.002 -0.0375,-0.002 l -0.0017,0 c -0.179,8.3e-4 -0.358,0.0116 -0.535295,0.0349 0.185819,-0.0249 0.373342,-0.0341 0.561718,-0.0324 m -1.760165,0.29507 c 0.01108,-0.008 0.02046,-0.0175 0.03239,-0.0258 -0.0068,-0.005 -0.01108,-0.0108 -0.01108,-0.0158 l -8.52e-4,0 c -0.01023,0.0125 -0.01193,0.0283 -0.02046,0.0416 m 4.142569,-0.15543 c -0.0085,-0.002 -0.01619,-0.003 -0.02557,-0.005 -0.0085,0.0324 -0.03239,0.0599 -0.06052,0.0864 0.02898,-0.0224 0.05796,-0.0449 0.0878,-0.0756 -8.53e-4,-0.002 -8.53e-4,-0.004 -0.0017,-0.006 m 3.337069,13.04854 c 0,0.73476 -0.123595,1.36479 -0.320495,1.92333 -0.01449,0.044 -0.02813,0.0889 -0.04518,0.13216 -0.04518,0.11802 -0.09461,0.23023 -0.146609,0.34078 l 0,8.3e-4 c -0.120186,0.25018 -0.255714,0.48291 -0.406586,0.69486 -0.03068,0.044 -0.05796,0.0889 -0.09035,0.13215 -0.06563,0.0856 -0.134676,0.16707 -0.204571,0.24769 -0.05541,0.064 -0.11081,0.12717 -0.170476,0.19034 -0.07757,0.0806 -0.157691,0.15626 -0.238667,0.23024 -0.04603,0.0424 -0.09035,0.0848 -0.138086,0.12633 0.0162,-0.015 0.03069,-0.0307 0.04688,-0.0457 -0.02813,0.0233 -0.05455,0.0499 -0.08268,0.0731 0.01108,-0.009 0.02472,-0.0191 0.0358,-0.0274 -0.03921,0.0349 -0.08012,0.0673 -0.119333,0.10141 -0.0094,0.007 -0.01875,0.0158 -0.02813,0.0241 -0.698952,0.59429 -1.516385,1.03065 -2.292904,1.20603 l -0.584733,0.11886 c -0.270205,0.0665 -0.5549,0.0565 -0.831923,0.0806 0.612009,-0.0515 1.224018,-0.17621 1.824094,-0.39065 -0.03495,0.01 -0.07075,0.0166 -0.105695,0.0258 -0.167067,0.054 -0.328167,0.10057 -0.484152,0.13963 -0.108253,0.0407 -0.23611,0.0682 -0.376753,0.0848 -0.353737,0.0682 -0.654628,0.0981 -0.857494,0.0981 -0.09462,0 -0.170476,-0.0748 -0.170476,-0.16623 0,-0.0923 0.07586,-0.16707 0.170476,-0.16707 0.481595,0 1.534285,-0.16623 2.572484,-0.69901 0.288957,-0.17455 0.581323,-0.37736 0.854938,-0.6425 1.15668,-0.95751 1.897399,-2.84925 1.396199,-4.98702 -0.2506,-1.33154 -1.758461,-2.68302 -2.025256,-4.50495 -0.06819,-0.32083 -0.160248,-0.6375 -0.176443,-0.95833 -0.116776,-0.66743 -0.115924,-1.47367 -0.235257,-2.03887 0.122743,0.43221 0.236109,1.02068 0.334986,1.70723 -0.01023,-0.15709 -0.0196,-0.31418 -0.03495,-0.46878 -0.228438,-0.81455 0.108252,-2.12614 -0.980238,-2.10951 0.23611,-0.0258 -2.544355,-0.14546 -1.735446,-0.0515 -0.542967,0.003 -1.080819,0.0407 -1.609295,0.16291 l -0.450056,0.1039 -0.01705,0.005 c 0.187524,0.0997 0.521657,0.40976 -0.05114,0.015 l -0.04091,0.0125 -0.34351,0.0499 c -0.369933,-0.192 -0.40829,-0.23689 -0.398061,-0.26099 -0.0094,-0.0125 -0.01449,-0.0233 -0.01534,-0.0316 0.0068,0.009 0.0077,0.0216 0.01534,0.0308 0.0077,-0.0158 0.02898,-0.0249 -0.0077,-0.0607 -0.0043,0.009 -0.0077,0.0191 -0.0077,0.0299 -0.05967,-0.0839 -0.06819,-0.19532 0.0094,-0.33911 -0.006,-0.003 -0.01023,-0.007 -0.01619,-0.0108 -0.08012,-0.2668 -0.03409,-0.13465 0.02472,-0.002 8.52e-4,-8.3e-4 0.0026,-0.002 0.0034,-0.004 -8.52e-4,0.002 -0.0017,0.004 -0.0026,0.007 0.0034,0.007 0.0077,0.0141 0.01108,0.0216 0.0043,-0.0241 0.0085,-0.0374 0.01279,-0.0582 -0.006,0.01 -0.01619,0.02 -0.02131,0.0299 0.01705,-0.0582 0.03239,-0.10223 0.04603,-0.13465 0.01023,-0.0366 0.01961,-0.0582 0.02898,-0.0781 -0.006,-0.0382 -0.01023,-0.0715 -0.01875,-0.11636 -0.0051,-0.01 -0.0094,-0.0216 -0.01364,-0.0324 -0.07501,-0.054 -0.08779,-0.13465 -0.05285,-0.2294 -8.52e-4,-0.0316 -0.0034,-0.0623 0,-0.0931 -0.0034,-0.0199 -0.0094,-0.044 -0.01279,-0.0648 -0.02642,-0.0407 -0.05285,-0.0831 -0.07331,-0.13216 0.006,-0.0382 0.01279,-0.0798 0.02131,-0.128 -8.52e-4,-8.3e-4 -8.52e-4,-8.3e-4 -8.52e-4,-0.002 0,-8.3e-4 8.52e-4,-8.3e-4 8.52e-4,-8.3e-4 0.02728,-0.16208 0.06393,-0.37486 0.114219,-0.64582 -0.09376,-0.17205 -0.01961,-0.36405 0.08609,-0.50203 -0.04773,-0.0989 -0.08439,-0.20363 -0.08183,-0.20945 -0.01193,-0.36821 0.209685,-0.52281 0.155133,-0.46961 0.03324,0.0308 -0.241224,0.2427 -0.05626,0.60924 0.01364,-0.0748 0.02983,-0.15044 0.04944,-0.22691 0.03495,-0.1787 0.0733,-0.3707 0.116776,-0.58015 0.09035,-0.049 0.0716,-0.069 0.02728,-0.0108 l 0.0094,0.0973 c 0.02216,-0.0241 0.04177,-0.044 0.06222,-0.0673 0.198605,-0.37568 0.5012,-0.69236 0.932505,-0.84114 0.06563,-0.0432 0.131266,-0.084 0.195195,-0.11886 0.251452,-0.08478 0.499495,-0.09808 0.74839,-0.127166 l 0.2506,0 c 0.910342,-0.06899 1.696237,0.131326 2.396041,0.354906 0.03495,-0.14296 0.433009,0.29507 0.397209,0.60759 0.09802,0.0199 0.195196,0.0407 0.300038,0.0781 -0.102285,-0.0307 -0.199457,-0.0515 -0.300038,-0.0773 -0.006,0.0582 -0.03069,0.10971 -0.07501,0.1546 l 0.05285,0.0224 c -0.0196,-0.006 -0.03921,-0.008 -0.05881,-0.0133 -0.02046,0.0191 -0.04688,0.0349 -0.07586,0.0499 0.112515,0.0291 0.223324,0.0582 0.315381,0.0956 0.08694,0.0349 0.127857,0.13215 0.09206,0.2161 -0.0358,0.0848 -0.132971,0.12468 -0.219061,0.0906 -0.05796,0.004 -0.113367,-0.009 -0.168772,-0.0291 -0.409995,0.0407 -1.326304,-0.0781 -1.785737,-0.0948 l -0.113367,0.005 c -0.349476,0.01 -0.697247,0.0266 -1.044166,0.0515 0.270205,-0.0199 0.541262,-0.0316 0.814876,-0.0349 l -0.114219,0.0274 c -0.554047,0.007 -1.119175,0.0665 -1.691123,0.14463 -0.01449,-0.007 -0.02301,-0.0125 -0.0358,-0.0191 -0.217357,0.14545 0.06563,0.16125 0.560867,0.13299 0.514837,-0.0665 1.129404,-0.12052 1.739708,-0.12717 0.731343,-0.0416 1.38938,-0.0366 1.570937,0.13465 0.121038,0.0291 0.237815,0.0598 0.344362,0.0989 0.08865,0.0324 0.133824,0.128 0.100581,0.21361 -0.03324,0.0864 -0.132119,0.12966 -0.219062,0.0981 -0.09035,-0.0332 -0.189228,-0.0607 -0.293219,-0.0848 -0.01279,0.0141 -0.02131,0.0266 -0.0375,0.0424 -1.016038,-0.2718 -3.711265,-0.0191 -3.876627,0.192 l 0.288105,-0.054 c 0.502052,-0.0416 0.991318,-0.13216 1.486551,-0.12883 -0.501199,0.0133 -0.987056,0.0781 -1.483994,0.14795 -0.09632,0.10639 -0.192638,0.10057 -0.287252,0.0715 0.01193,0.0174 0.0375,0.0332 0.09035,0.049 0.834481,-0.13465 2.677327,-0.35824 3.513512,-0.0964 -0.06819,-0.002 -0.138085,-0.003 -0.20798,-0.005 0.115071,0.009 0.222471,0.0266 0.329871,0.0449 -0.0358,-0.015 -0.08098,-0.0266 -0.121891,-0.0399 0.374195,0.0125 0.687019,0.0499 0.716,0.18868 8.52e-4,8.3e-4 0.0017,8.3e-4 0.0026,8.3e-4 0.0895,0.0266 0.139791,0.12052 0.111662,0.20779 -0.02813,0.0881 -0.123595,0.1413 -0.213095,0.10888 -0.03239,-0.01 -0.07075,-0.0141 -0.103991,-0.0224 -0.03665,0.0299 -0.06989,0.059 -0.117628,0.0931 0.0094,-0.0241 0.0077,-0.044 0.01279,-0.0657 0.0068,8.3e-4 0.01364,0.002 0.0196,0.003 0.02216,-0.0141 0.03495,-0.0258 0.0537,-0.0382 -0.02046,-0.006 -0.04262,-0.009 -0.06393,-0.0141 -0.0017,0.0158 -0.0051,0.0316 -0.0094,0.049 -0.05455,-0.0125 -0.109957,-0.0191 -0.165362,-0.0291 -0.235257,0.0249 -0.499495,0.0191 -0.633319,-0.0573 -0.03495,-0.007 -0.0716,-0.007 -0.106547,-0.0125 -0.177296,-0.0141 -0.353738,-0.0241 -0.530181,-0.0266 -0.09632,-0.002 -0.192638,0.002 -0.288105,0.003 -0.09291,8.3e-4 -0.184966,8.3e-4 -0.277876,0.004 -0.127004,0.004 -0.254861,0.0125 -0.382719,0.0199 -0.08438,0.004 -0.168771,0.007 -0.253157,0.0133 -0.0077,8.3e-4 -0.01619,0.002 -0.02387,0.002 -0.06904,0.005 -0.137233,0.0108 -0.206276,0.0166 -0.373343,0.0657 -0.703214,0.14379 -0.924833,0.20613 0.665709,-0.12966 1.300733,-0.16291 2.000537,-0.18286 l 0.24719,0.0166 c -0.531033,-0.002 -1.054394,0.0333 -1.578608,0.0906 l 0.150019,-0.008 c -0.122743,0.0108 -0.244634,0.0216 -0.367376,0.0374 -0.05711,0.007 -0.115072,0.015 -0.172181,0.0224 -0.1074,0.0914 -0.219062,0.0923 -0.334986,0.0773 -0.06478,0.0166 -0.115071,0.0274 -0.150019,0.0341 0.05626,0.0175 0.122743,0.0291 0.198605,0.0366 0.56939,-0.10223 1.307552,-0.17205 2.05168,-0.17205 0.773109,0 1.541956,0.074 2.105379,0.26265 0.0077,0.002 0.0094,0.01 0.0162,0.0133 8.52e-4,-0.006 0.0034,-0.0125 0.0034,-0.0166 -0.08353,-0.0632 -0.220766,-0.10224 -0.352033,-0.1305 0.131267,0.0216 0.266795,0.0515 0.350328,0.11387 -8.52e-4,-0.0216 -0.0068,-0.0416 -0.01449,-0.0598 -0.02898,-0.0191 -0.05881,-0.0499 -0.08865,-0.0623 -0.01108,-0.004 -0.02216,-0.008 -0.0341,-0.0116 -0.03324,-0.0133 -0.06478,-0.0191 -0.09717,-0.0274 l 0.03154,0.007 c -0.196048,-0.0582 -0.39039,-0.1014 -0.581324,-0.12633 0.01705,0 0.03324,0 0.05029,8.3e-4 -0.08268,-0.0133 -0.165362,-0.0291 -0.248895,-0.0507 l 0.28299,0.0515 c 0.254862,0.005 0.494381,0.0274 0.616271,0.12135 0.0341,0.009 0.06904,0.0258 0.103991,0.0457 l 0.0085,0.002 c 0.0017,0.002 0.0017,0.004 0.0034,0.006 0.02472,0.0158 0.04944,0.0258 0.07501,0.0499 -0.0196,-0.0108 -0.03921,-0.015 -0.05881,-0.0249 0.0017,0.002 0.0017,0.004 0.0034,0.007 0.01875,0.007 0.03665,0.0108 0.0554,0.0183 0.369934,0.32001 -0.1432,0.58182 -0.33328,0.52447 0.0043,-0.005 0.006,-0.008 0.01023,-0.0133 -0.178147,0.01 -0.346919,-0.0266 -0.3401,-0.0723 l -0.221619,-0.0532 c 0.100581,-0.0249 0.346919,0.11054 0.563424,0.12135 0.02898,-0.0366 0.05029,-0.0682 0.07245,-0.1014 -0.337542,0.0175 -0.58729,-0.14463 -0.912899,-0.12967 -0.594109,-0.074 -1.189923,-0.0623 -1.753347,-0.0266 l -0.689576,0.0623 -0.305152,0.0374 -8.52e-4,-0.005 -8.53e-4,-0.005 -0.141495,0.0224 c -0.04688,0.0158 -0.09547,0.0291 -0.13979,0.0465 0.01875,0.002 0.03836,0.005 0.05626,0.006 l 0,-0.002 0.228438,-0.0515 c 0.577914,-0.0906 1.166056,-0.12384 1.752494,-0.13382 l -0.81999,0.0574 c -0.374195,0.0282 -0.746685,0.0723 -1.113209,0.13464 0.150019,0.009 0.287252,0.0108 0.417667,0.007 -0.225881,0.0274 -0.448352,0.0615 -0.663152,0.10057 -0.02387,-0.01 -0.04262,-0.0183 -0.05881,-0.0233 -0.02216,0.0125 -0.04177,0.0258 -0.06222,0.0391 0.0068,0.0349 0.01534,0.0707 -0.06308,0.0457 -0.08183,0.0598 -0.153428,0.12551 -0.202866,0.20115 -0.02472,-0.0125 -0.04603,-0.0258 -0.06052,-0.0407 0.006,0.0183 0,0.0291 0.0094,0.0482 0.08012,0.0399 0.188376,0.054 0.306857,0.0565 -0.09888,0.0133 -0.201162,0.0291 -0.298333,0.0391 -0.01364,-0.0183 -0.01534,-0.0307 -0.02642,-0.0482 -0.0051,0.0291 -0.006,0.0615 -0.01705,0.0873 0.158543,-0.0299 0.311972,-0.049 0.467105,-0.0715 -0.01023,-8.3e-4 -0.01619,-0.002 -0.02557,-0.002 0.02813,-8.3e-4 0.05881,-0.006 0.08865,-0.007 0.153429,-0.0216 0.303448,-0.0416 0.453467,-0.0565 0.07842,-0.0133 0.15769,-0.0258 0.236109,-0.0391 -0.294071,0.0307 -0.579619,0.0598 -0.85579,0.0964 -0.115071,-0.0108 -0.202014,-0.0283 -0.260828,-0.0532 0.306857,0.015 0.78419,-0.0316 1.309256,-0.0707 0.160247,-0.0233 0.307709,-0.0341 0.438976,-0.0291 0.453466,-0.0241 0.915457,-0.0274 1.310961,0.0341 -0.520804,-0.0332 -1.041609,-0.0233 -1.563266,0.0108 1.442228,-0.0723 2.605727,0.12883 3.022541,0.32083 0.444943,0.2053 0.562572,1.20021 0.679348,2.58328 0.02813,0.33579 0.0537,0.63418 0.08609,0.83616 0.260829,1.60665 0.791009,2.41122 1.304142,3.18837 0.543819,0.82535 1.057804,1.60416 1.057804,3.2"
         style="fill:#3a4146;fill-opacity:1;fill-rule:nonzero;stroke:none"
         id="path166"
         inkscape:connector-curvature="0" /><path
         d="m 20.792831,103.43353 c 0.255714,-0.0316 0.51569,-0.0532 0.777371,-0.0665 -0.236109,0.0316 -0.490119,0.0582 -0.777371,0.0665"
         style="fill:#3a4146;fill-opacity:1;fill-rule:nonzero;stroke:none"
         id="path170"
         inkscape:connector-curvature="0" /><path
         d="m 21.381313,103.33528 c 0.236962,-0.0191 0.473071,-0.0249 0.708328,-0.0266 0.03495,-0.002 0.07245,-0.002 0.1074,-0.004 l 0.05626,0 c 0.124448,-0.003 0.25401,0.002 0.389538,0.0158 0.21821,0.01 0.437271,0.0183 0.654628,0.0341 l -0.225028,-0.006 c -0.124448,-0.0125 -0.249748,-0.0133 -0.375048,-0.0208 0.08609,0.0108 0.168772,0.0174 0.261681,0.0366 l -0.0017,0.0233 c -0.451762,-0.0399 -0.921424,-0.0449 -1.386824,-0.0208 0.153429,-0.0208 0.305153,-0.0391 0.456024,-0.0515 -0.2148,0.002 -0.428747,8.3e-4 -0.645252,0.0199"
         style="fill:#3a4146;fill-opacity:1;fill-rule:nonzero;stroke:none"
         id="path174"
         inkscape:connector-curvature="0" /><path
         d="m 24.027529,102.20788 0.1253,0.0183 c 0.06393,0.003 0.09888,-0.0208 0.144905,-0.0349 -0.09717,0.0507 -0.201162,0.069 -0.270205,0.0166"
         style="fill:#3a4146;fill-opacity:1;fill-rule:nonzero;stroke:none"
         id="path178"
         inkscape:connector-curvature="0" /><path
         d="m 24.297648,102.19168 c 0.09547,-0.0507 0.183262,-0.13216 0.218209,-0.22857 -0.0085,0.10805 -0.08609,0.18867 -0.218209,0.22857"
         style="fill:#3a4146;fill-opacity:1;fill-rule:nonzero;stroke:none"
         id="path182"
         inkscape:connector-curvature="0" /><path
         d="m 24.516114,101.96277 c 0.01108,-0.12883 -0.052,-0.27262 -0.184114,-0.34909 0.195195,0.0973 0.228438,0.23023 0.184114,0.34909"
         style="fill:#3a4146;fill-opacity:1;fill-rule:nonzero;stroke:none"
         id="path186"
         inkscape:connector-curvature="0" /><path
         d="m 21.007119,102.78339 c 0.352886,-0.0316 0.704919,-0.0524 1.059509,-0.0582 l -1.059509,0.0582 z"
         style="fill:#3a4146;fill-opacity:1;fill-rule:nonzero;stroke:none"
         id="path190"
         inkscape:connector-curvature="0" /><path
         d="m 23.858502,102.84988 c 0.08694,0.009 0.174738,0.0266 0.263386,0.0507 l -0.263386,-0.0507 z"
         style="fill:#3a4146;fill-opacity:1;fill-rule:nonzero;stroke:none"
         id="path194"
         inkscape:connector-curvature="0" /><path
         d="m 23.858502,102.84988 c -0.119333,-0.0125 -0.237814,-0.0249 -0.358852,-0.069 -0.305152,8.3e-4 -0.603486,0.0125 -0.727933,-0.0524 0.270205,0.003 0.53359,0.0166 0.800385,0.0524 l -0.07075,0 0.357147,0.069 z"
         style="fill:#3a4146;fill-opacity:1;fill-rule:nonzero;stroke:none"
         id="path198"
         inkscape:connector-curvature="0" /><path
         d="m 24.005879,102.94812 c -0.119333,-0.0191 -0.2327,-0.0316 -0.293219,-0.0549 0.06052,0.0125 0.173886,0.0291 0.293219,0.0549"
         style="fill:#3a4146;fill-opacity:1;fill-rule:nonzero;stroke:none"
         id="path202"
         inkscape:connector-curvature="0" /><path
         d="m 21.208963,103.21028 c 0.04688,-0.005 0.09376,-0.01 0.141495,-0.0141 -0.04773,0.004 -0.09461,0.009 -0.141495,0.0141"
         style="fill:#3a4146;fill-opacity:1;fill-rule:nonzero;stroke:none"
         id="path206"
         inkscape:connector-curvature="0" /><path
         d="m 20.097715,103.86449 c -0.0358,0.002 -0.06649,-0.002 -0.09973,-0.004 0.0077,-8.3e-4 0.01449,-0.002 0.02216,-0.002 0.02472,0.002 0.04944,0.005 0.07757,0.007"
         style="fill:#3a4146;fill-opacity:1;fill-rule:nonzero;stroke:none"
         id="path210"
         inkscape:connector-curvature="0" /><path
         d="m 21.083322,103.22407 c 0.04177,-0.005 0.08353,-0.01 0.1253,-0.0141 -0.04177,0.004 -0.08268,0.01 -0.1253,0.0141"
         style="fill:#3a4146;fill-opacity:1;fill-rule:nonzero;stroke:none"
         id="path214"
         inkscape:connector-curvature="0" /><path
         d="m 19.742698,103.79633 c 0.0051,0.002 0.01023,0.006 0.01705,0.008 -0.0077,0 -0.01705,8.3e-4 -0.02387,0 0.0017,-0.003 0.0051,-0.005 0.0068,-0.008"
         style="fill:#3a4146;fill-opacity:1;fill-rule:nonzero;stroke:none"
         id="path218"
         inkscape:connector-curvature="0" /><path
         d="m 21.722181,103.17379 c -0.124448,0.008 -0.249747,0.0125 -0.37249,0.0224 0.122743,-0.01 0.246338,-0.0174 0.37249,-0.0224"
         style="fill:#3a4146;fill-opacity:1;fill-rule:nonzero;stroke:none"
         id="path222"
         inkscape:connector-curvature="0" /><path
         d="m 24.174053,105.22171 c -0.05455,-0.19117 -0.110809,-0.35325 -0.167919,-0.47875 0.07757,0.11802 0.127857,0.28841 0.167919,0.47875"
         style="fill:#3a4146;fill-opacity:1;fill-rule:nonzero;stroke:none"
         id="path226"
         inkscape:connector-curvature="0" /><path
         d="m 24.005879,104.74279 c -0.101433,-0.1546 -0.242076,-0.23522 -0.44409,-0.20779 0.150871,-0.20031 0.30089,-0.1039 0.44409,0.20779"
         style="fill:#3a4146;fill-opacity:1;fill-rule:nonzero;stroke:none"
         id="path230"
         inkscape:connector-curvature="0" /><path
         d="m 23.432738,100.05125 c 0.166214,0.0399 0.31879,0.0815 0.433862,0.12634 -0.144053,-0.0465 -0.288957,-0.0864 -0.433862,-0.12634"
         style="fill:#3a4146;fill-opacity:1;fill-rule:nonzero;stroke:none"
         id="path234"
         inkscape:connector-curvature="0" /><path
         d="m 20.389484,100.02282 0,0 -8.52e-4,0 8.52e-4,0 z"
         style="fill:#3a4146;fill-opacity:1;fill-rule:nonzero;stroke:none"
         id="path238"
         inkscape:connector-curvature="0" /><path
         d="m 23.432738,100.05125 c -0.155986,-0.0366 -0.329019,-0.06982 -0.513985,-0.09808 0.04688,0.0042 0.09632,0.0066 0.144904,0.01 0.123595,0.02743 0.246338,0.05485 0.369081,0.0881"
         style="fill:#3a4146;fill-opacity:1;fill-rule:nonzero;stroke:none"
         id="path242"
         inkscape:connector-curvature="0" /><path
         d="m 21.74511,99.795495 c -0.05114,8.31e-4 -0.09035,0.0025 -0.1074,0.0058 0.07416,-8.31e-4 0.147462,0.0067 0.221619,0.0091 0.162805,0.02161 0.331576,0.04904 0.512281,0.07647 -0.727081,-0.06483 -1.505304,-0.04655 -1.981785,0.135475 0.480743,-0.264307 0.895,-0.280099 1.355285,-0.226904"
         style="fill:#3a4146;fill-opacity:1;fill-rule:nonzero;stroke:none"
         id="path246"
         inkscape:connector-curvature="0" /><path
         d="m 18.663073,102.73219 c 0.006,0.11886 0.04006,0.26099 0.09461,0.38733 -0.100581,0.61091 -0.0179,0.20363 -0.09461,-0.38733"
         style="fill:#3a4146;fill-opacity:1;fill-rule:nonzero;stroke:none"
         id="path250"
         inkscape:connector-curvature="0" /><path
         d="m 21.74511,99.795495 c 0.319643,-0.0033 1.21379,0.04904 1.524056,0.178702 -0.07075,-0.0017 -0.138085,-0.0075 -0.205423,-0.01164 -0.395505,-0.08727 -0.796976,-0.141299 -1.204414,-0.152104 -0.03836,-0.0058 -0.07671,-0.01 -0.114219,-0.01496"
         style="fill:#3a4146;fill-opacity:1;fill-rule:nonzero;stroke:none"
         id="path254"
         inkscape:connector-curvature="0" /><path
         d="m 22.371865,99.887256 c 0.189228,0.01662 0.371638,0.03907 0.547228,0.06566 -0.195195,-0.01662 -0.376752,-0.04073 -0.547228,-0.06566"
         style="fill:#3a4146;fill-opacity:1;fill-rule:nonzero;stroke:none"
         id="path258"
         inkscape:connector-curvature="0" /><path
         d="m 20.394513,112.51955 c 0.02046,0.17039 0.166214,0.29091 0.222471,0.44717 l -0.07671,-0.12052 0.01534,0.0133 -0.05114,-0.069 c -0.04688,-0.0889 -0.145757,-0.15792 -0.131267,-0.26265 l 0.02131,-0.008 z"
         style="fill:#3a4146;fill-opacity:1;fill-rule:nonzero;stroke:none"
         id="path262"
         inkscape:connector-curvature="0" /><path
         d="m 20.388632,112.67215 -0.04773,-0.16623 0.0085,0.0183 0.03921,0.14795 z"
         style="fill:#3a4146;fill-opacity:1;fill-rule:nonzero;stroke:none"
         id="path266"
         inkscape:connector-curvature="0" /><path
         d="m 21.499539,114.09586 -0.01449,-0.006 0.07501,0.009 -0.06052,-0.003 z"
         style="fill:#3a4146;fill-opacity:1;fill-rule:nonzero;stroke:none"
         id="path270"
         inkscape:connector-curvature="0" /><path
         d="m 20.265462,112.20711 -0.0077,0.0216 -0.02046,-0.10223 c 0.0068,0.0266 0.01279,0.054 0.02813,0.0806"
         style="fill:#3a4146;fill-opacity:1;fill-rule:nonzero;stroke:none"
         id="path274"
         inkscape:connector-curvature="0" /><path
         d="m 19.677405,112.44491 0.07416,0.23855 -0.07075,-0.20946 -0.0034,-0.0291 z"
         style="fill:#3a4146;fill-opacity:1;fill-rule:nonzero;stroke:none"
         id="path278"
         inkscape:connector-curvature="0" /><path
         d="m 19.692322,112.57798 -0.0068,-0.059 0.0895,0.24852 -0.08268,-0.18951 z"
         style="fill:#3a4146;fill-opacity:1;fill-rule:nonzero;stroke:none"
         id="path282"
         inkscape:connector-curvature="0" /><path
         d="m 19.959543,113.25497 c -0.09547,-0.13465 -0.276171,-0.27512 -0.306857,-0.49205 l 0.13979,0.26514 0.167067,0.22691 z"
         style="fill:#3a4146;fill-opacity:1;fill-rule:nonzero;stroke:none"
         id="path286"
         inkscape:connector-curvature="0" /><path
         d="m 19.70238,112.6365 -0.01023,-0.0582 0.03836,0.128 -0.02813,-0.0698 z"
         style="fill:#3a4146;fill-opacity:1;fill-rule:nonzero;stroke:none"
         id="path290"
         inkscape:connector-curvature="0" /><path
         d="m 19.656181,112.14619 c -8.52e-4,-0.005 -8.52e-4,-0.0108 -0.0017,-0.0166 l -0.0077,-0.0191 0.0094,0.0357 z m 4.017269,0.69486 -0.132119,0.2319 -0.146609,0.24852 c 0.1074,-0.16541 0.238666,-0.33912 0.278728,-0.48042 m -3.879183,-1.18525 -0.0051,0.0233 c -0.05711,0.18369 -0.0554,0.32998 -0.02642,0.48208 -0.0017,-0.0341 -0.01108,-0.0665 -0.01108,-0.10057 0,-0.13299 0.01449,-0.26265 0.04177,-0.38816 0,-0.005 8.53e-4,-0.0116 8.53e-4,-0.0166 m 0.710885,1.43377 0.01875,0.0291 -0.0034,0.002 c 0.130414,0.13881 0.2864,0.25351 0.460285,0.33912 8.53e-4,8.3e-4 8.53e-4,0 0.0017,8.3e-4 -0.104843,-0.0657 -0.207981,-0.14213 -0.317938,-0.22691 l -0.0196,-0.0125 -0.127857,-0.19948 0.06393,0.0964 0.442385,0.33995 c 0.03069,0.0299 0.07416,0.0391 0.113367,0.0557 0.150871,0.0274 0.323904,0.015 0.442385,0.0274 l 0.0537,0.0175 0.07672,0.0357 -0.396357,-0.0432 0.04773,-8.3e-4 c -0.07245,-0.015 -0.138938,-0.0175 -0.202014,-0.0258 0.02472,0.008 0.04262,0.0258 0.06819,0.0324 0.0051,0.002 0.01023,0.003 0.01534,0.005 0.05285,0.0133 0.106548,0.0283 0.159395,0.0449 0.100581,0.0183 0.202014,0.0299 0.30771,0.0299 0.03495,0 0.06819,-0.008 0.103138,-0.01 l 0.100581,-0.0324 0.07842,-0.0233 -0.02387,0.002 0.09717,-0.0399 0.01705,-0.006 0.02216,-0.0241 c 0.127857,-0.0914 0.236109,-0.24852 0.337542,-0.42888 0.117629,-0.0449 0.252305,-0.10722 0.320495,-0.23855 l 0.04518,-0.0632 c 0.05285,-0.0898 0.127857,-0.16706 0.109104,-0.25267 0.0895,0.0241 0.01279,0.18452 -0.05711,0.36239 l 0.109105,-0.0906 c 0.03154,-0.0765 0.101433,-0.13631 0.102285,-0.22359 -0.03751,0.007 0.0179,-0.22607 -0.03495,-0.16706 l 0.0026,-0.13797 -0.02216,-0.0416 -0.01364,-0.0108 c -0.07757,-0.0291 -0.211391,0.0898 -0.231848,-0.11054 0.02983,-0.0216 0.04432,0.0573 0.08268,-0.0274 l -0.01875,-0.0474 c 0.06734,0.0997 0.197752,0.11553 0.128709,-0.16291 l -0.0026,-0.0108 -8.52e-4,-0.007 c -0.0375,-0.15294 -0.103991,-0.15543 -0.179,-0.25351 l 0.09632,0.0798 -0.09461,-0.12634 c 0.09206,0.0133 0.116776,0.14463 0.174738,0.19616 l -0.02557,-0.0499 0.01875,-0.0249 c -0.08609,-0.25433 -0.288957,-0.31085 -0.3938,-0.44052 l 0.274466,0.17289 -0.02216,-0.0765 -0.149166,-0.16042 0.101433,0.064 -0.006,-0.0324 -0.111661,-0.12218 0.115923,0.079 0.175591,0.16208 0.0068,-0.0291 -0.105695,-0.14463 -0.01108,-0.0175 0.04518,0.044 -0.06137,-0.0723 0.115924,0.0989 -0.135528,-0.13715 -0.01279,-0.0266 -0.01705,-0.0175 -0.02983,-0.0308 -0.156838,-0.0607 -0.03239,-0.0266 -0.0358,-0.0424 0.0017,-0.0224 0.144905,0.0615 -0.07842,-0.0424 0.127857,0.0515 -0.150019,-0.0773 0.0068,-0.01 0.05285,0.0224 c 0.120185,0.0648 0.2506,0.13714 0.317085,0.2452 l -0.103138,-0.13964 -0.324757,-0.2053 -0.03495,-0.0299 c 0.08439,0.049 0.176442,0.0981 0.264238,0.14379 -0.02301,-0.0183 -0.04518,-0.0382 -0.0699,-0.0565 l -0.338395,-0.18452 c 0.01279,0.002 0.02728,0.01 0.04092,0.015 -0.03069,-0.0141 -0.06308,-0.0224 -0.09462,-0.0349 -0.03069,-0.003 -0.06052,-0.009 -0.09291,-0.006 l -0.02301,-0.004 c -0.229291,-0.0216 -0.432157,-0.1039 -0.62991,-0.0166 -0.33669,0.0424 -0.58388,0.20945 -0.808056,0.41558 l 0.171328,-0.16873 c -0.138085,0.0707 -0.311119,0.14962 -0.379309,0.2826 l -0.02813,0.0349 c 0.01961,-0.0856 0.07501,-0.1546 0.139791,-0.21777 -0.06052,0.054 -0.115072,0.11388 -0.166214,0.17788 -0.02131,0.044 -0.04177,0.0898 -0.06649,0.12716 -0.02046,0.0183 -0.04262,0.0391 -0.06478,0.059 -0.136381,0.22691 -0.219062,0.4854 -0.223324,0.76634 0.0043,0.0549 0.0162,0.10722 0.0341,0.15958 -0.02216,-0.0565 -0.02983,-0.10805 -0.0341,-0.15875 -8.52e-4,0.007 -0.0026,0.0158 -0.0026,0.0224 0,0.2934 0.08779,0.56603 0.231848,0.80125 0.05881,0.0623 0.120185,0.13465 0.179852,0.22774 m 0.480743,0.37319 c -8.53e-4,-8.3e-4 -0.0017,-0.002 -0.0017,-0.002 l -0.0017,0 c 8.52e-4,0 0.0026,8.3e-4 0.0034,0.002 m 2.060203,-1.93247 -0.108252,-0.14795 -0.126152,-0.14628 0.234404,0.29423 z m -3.331955,0.53777 c 0.0051,0.10722 0.04262,0.21444 0.052,0.32166 l 0.02046,0.10889 0.0034,0.0116 0.09632,0.26016 -0.04603,-0.12883 0.02983,0.0623 -0.02557,-0.079 0.0358,0.0973 c -0.05114,-0.13465 -0.08439,-0.27678 -0.10399,-0.42306 -0.02728,-0.0731 -0.0537,-0.15045 -0.06222,-0.23107 m -0.08609,-0.0291 0.0026,0 0.01364,0.0216 c -0.0077,-0.0682 -0.0094,-0.13714 0.0094,-0.20862 l 0.0179,-0.0274 -0.01534,0.17288 0.03324,-0.12717 -0.03665,0.16956 -0.0017,0.0191 0.05199,0.20114 0.006,0.0175 -0.0017,-0.004 0.01534,0.0615 0.03836,0.10223 -0.07245,-0.28509 -0.02728,-0.084 0.0051,0 0.0051,0 0.04006,-0.0973 c -0.0085,0.0258 0.0026,0.0532 0.0026,0.0798 -0.0034,-0.0507 -8.53e-4,-0.0998 0.01619,-0.14878 l 0.08524,-0.38484 c 0,0.0416 -0.0077,0.0815 -0.01193,0.12219 0.08098,-0.3466 0.257419,-0.65663 0.502052,-0.90349 l -0.120186,0.0972 0.08609,-0.11969 c 0.179852,-0.15875 0.398061,-0.27013 0.592404,-0.37236 0.006,-0.003 0.01364,-0.002 0.0196,-0.005 0.04006,-0.0174 0.08012,-0.0357 0.121038,-0.0507 0.09291,-0.0391 0.196047,-0.064 0.296628,-0.0906 0.006,-8.3e-4 0.01193,-0.003 0.01875,-0.005 0.07757,-0.0199 0.153428,-0.0416 0.218209,-0.074 l 0.0716,-0.007 0.09973,8.3e-4 -0.248896,0.0665 c 0.08268,-0.0108 0.163658,-0.0241 0.248896,-0.0241 0.15428,0 0.303447,0.0216 0.447499,0.0549 l 8.53e-4,0 0.02813,0.003 0.03324,-0.0141 c 0.220767,-0.0765 0.467957,-0.0474 0.778223,0.0831 0.174738,0.12218 0.352886,0.27429 0.460286,0.49289 l 0.07245,0.10722 0.282991,0.37901 c -0.02728,0.0241 -0.237815,-0.20281 -0.423633,-0.39896 l 0.07757,0.17953 c 0.06308,0.0973 0.172181,0.17704 0.197752,0.29257 0.02642,-0.0432 0.09376,0.31252 0.11081,0.19948 l 0.06904,0.2053 0.04177,0.0557 0.01875,0.0141 c 0.09291,0.0457 0.135528,-0.27761 0.288104,0.15959 -0.01449,0.0524 -0.07927,-0.11387 -0.06308,0.0698 l 0.0043,0.10058 c -0.07757,-0.21528 -0.118481,-0.20364 -0.219062,0.27262 l -0.0043,0.0191 -0.0026,0.0125 c -0.05199,0.21694 0,0.30671 -0.01023,0.46214 0,-0.0524 -0.006,-0.1039 -0.01534,-0.11554 l -0.04091,0.16291 c 0.0179,-0.11221 0.02301,-0.25683 0.01279,-0.33912 l -0.006,0.0973 -0.02898,0.0241 c -0.113367,0.4347 -0.290662,0.6508 -0.448352,0.96748 0.138938,-0.23356 0.183261,-0.40312 0.218209,-0.5278 l -0.09291,0.0898 -0.180704,0.31751 0.07075,-0.18618 -0.03665,0.0299 -0.172181,0.19283 0.124448,-0.17372 0.154281,-0.31335 -0.0358,0.0108 -0.138086,0.20779 -0.01705,0.0249 0.04092,-0.0798 -0.06819,0.11387 0.08524,-0.192 -0.122743,0.23606 -0.02898,0.0316 0.106548,-0.19366 -0.131267,0.21028 -0.05626,0.0249 -0.1611,0.14961 -0.05285,0.0283 -0.0699,0.0291 -0.02387,-0.009 0.153428,-0.13382 -0.0912,0.069 0.126152,-0.11554 -0.168771,0.13133 -0.0068,-0.01 0.0537,-0.0474 c 0.109957,-0.0806 0.223323,-0.16457 0.298333,-0.27096 -0.02131,0.0233 -0.0375,0.0482 -0.05967,0.069 l -0.01534,0.0191 -0.0537,0.0366 c -0.30089,0.26681 -0.685314,0.43886 -1.111504,0.48125 -0.147462,0.0366 -0.292366,0.059 -0.438123,0.0116 -0.430452,-0.0108 -0.776519,-0.17871 -1.125995,-0.41393 l 0.296628,0.13881 c -0.146609,-0.13714 -0.371637,-0.22608 -0.442385,-0.40811 l -0.02983,-0.0474 c 0.0179,0.0274 0.04518,0.0499 0.06819,0.074 -0.117628,-0.13299 -0.219062,-0.27844 -0.295776,-0.43969 -0.05626,-0.069 -0.09632,-0.14628 -0.1253,-0.23106 l -0.0085,-0.0199 0.0043,0.0208 -0.0094,-0.0349 -0.05114,-0.14047 -0.006,-0.0133 c -0.02728,-0.0939 -0.06563,-0.19366 -0.08865,-0.29839 l -0.01023,-0.0382 0,8.3e-4 0,-8.3e-4 -0.02301,-0.0848 0.0051,0.0141 z"
         style="fill:#3a4146;fill-opacity:1;fill-rule:nonzero;stroke:none"
         id="path294"
         inkscape:connector-curvature="0" /><path
         d="m 22.971174,113.80529 -0.109105,0.0956 0.06649,-0.0731 0.04262,-0.0224 z"
         style="fill:#3a4146;fill-opacity:1;fill-rule:nonzero;stroke:none"
         id="path298"
         inkscape:connector-curvature="0" /><path
         d="m 23.84188,112.94977 c -0.0085,0.049 -0.0179,0.0931 -0.03154,0.12135 l 0.03154,-0.12135 z"
         style="fill:#3a4146;fill-opacity:1;fill-rule:nonzero;stroke:none"
         id="path302"
         inkscape:connector-curvature="0" /><path
         d="m 23.898052,112.90272 c 0,0.0449 -0.0034,0.0898 -0.01449,0.11055 0.01108,-0.0432 0.01278,-0.0765 0.01449,-0.11055"
         style="fill:#3a4146;fill-opacity:1;fill-rule:nonzero;stroke:none"
         id="path306"
         inkscape:connector-curvature="0" /><path
         d="m 19.692322,111.35558 c 0.07842,-0.24104 0.282138,-0.43138 0.421928,-0.61839 l -0.123595,0.16873 0.01279,-0.0274 -0.06904,0.10556 c -0.07416,0.13049 -0.202866,0.23522 -0.220766,0.37901 l -0.02131,-0.007 z"
         style="fill:#3a4146;fill-opacity:1;fill-rule:nonzero;stroke:none"
         id="path310"
         inkscape:connector-curvature="0" /><path
         d="m 19.729827,111.41567 0.0026,-0.0308 0.09461,-0.19616 -0.09717,0.22691 z"
         style="fill:#3a4146;fill-opacity:1;fill-rule:nonzero;stroke:none"
         id="path314"
         inkscape:connector-curvature="0" /><path
         d="m 21.566962,110.6795 -0.01023,0 0.05029,-0.0158 -0.04006,0.0158 z"
         style="fill:#3a4146;fill-opacity:1;fill-rule:nonzero;stroke:none"
         id="path318"
         inkscape:connector-curvature="0" /><path
         d="m 20.308764,111.77524 -0.0068,0.02 0.01279,-0.17704 -0.006,0.15709 z"
         style="fill:#3a4146;fill-opacity:1;fill-rule:nonzero;stroke:none"
         id="path322"
         inkscape:connector-curvature="0" /><path
         d="m 20.332886,111.70791 -0.01279,0.0391 0.0017,-0.19284 0.01108,0.15377 z"
         style="fill:#3a4146;fill-opacity:1;fill-rule:nonzero;stroke:none"
         id="path326"
         inkscape:connector-curvature="0" /><path
         d="m 20.486911,111.45224 0.09888,-0.15792 c -0.02642,0.10805 -0.149166,0.1895 -0.155985,0.32997 l 0.05711,-0.17205 z"
         style="fill:#3a4146;fill-opacity:1;fill-rule:nonzero;stroke:none"
         id="path330"
         inkscape:connector-curvature="0" /><path
         d="m 20.343285,111.66893 -0.01023,0.0391 0.0077,-0.0923 0.0026,0.0532 z"
         style="fill:#3a4146;fill-opacity:1;fill-rule:nonzero;stroke:none"
         id="path334"
         inkscape:connector-curvature="0" /><path
         d="m 20.224293,112.07637 -0.0026,0 -0.01023,-0.01 -0.0026,0.0199 0.01534,0.11471 -0.02642,-0.13549 0.0026,-0.0216 0.01449,-0.14545 0,0.0125 0.0068,-0.0549 0,-0.0815 -0.03239,0.21693 -0.0026,0.064 -0.0051,0 -0.006,0 -0.0085,0.074 c -0.03836,-0.10638 0.02301,-0.21527 0.03239,-0.32415 l 0.02046,-0.084 8.52e-4,-0.009 0.0051,-0.22857 -0.0051,0.11553 -0.0043,-0.0598 -0.0051,0.069 0.0034,-0.10473 0.01705,-0.0657 0.03154,-0.0499 0.01619,-0.0258 -0.0043,0.008 0.02472,-0.0366 -0.01108,0.0199 c -0.05455,0.0748 -0.05455,0.16956 -0.04773,0.26265 l 0,0.0175 0.0034,-0.0166 -0.0043,0.0274 -8.52e-4,0.11637 0,0.0116 c 0.0017,0.0557 -0.0068,0.11304 -0.01279,0.17039 l 0.0077,0.14296 -0.0068,-0.007 0.0094,0.0474 c -0.0043,-0.0166 -0.0094,-0.0333 -0.01193,-0.0499 l -8.52e-4,-8.3e-4 z"
         style="fill:#3a4146;fill-opacity:1;fill-rule:nonzero;stroke:none"
         id="path338"
         inkscape:connector-curvature="0" /><path
         d="m 20.197187,112.36129 c -0.07245,-0.22525 -0.113367,-0.38234 -0.04177,-0.61423 l 0.0077,-0.0358 c 0.03069,0.12884 -0.07586,0.31336 0.01023,0.47211 l 0.05711,0.30171 c -0.02642,-0.0923 -0.06734,-0.18784 -0.100581,-0.28841 0.02557,0.0673 0.05626,0.13382 0.07075,0.18202 l -0.0034,-0.0174 z"
         style="fill:#3a4146;fill-opacity:1;fill-rule:nonzero;stroke:none"
         id="path342"
         inkscape:connector-curvature="0" /><path
         d="m 22.46844,111.01065 -0.08268,-0.0307 0.06137,0.0108 0.02131,0.0199 z"
         style="fill:#3a4146;fill-opacity:1;fill-rule:nonzero;stroke:none"
         id="path346"
         inkscape:connector-curvature="0" /><path
         d="m 22.308619,110.60071 0.01193,0.007 c -0.01023,-0.002 -0.02131,-0.01 -0.03068,-0.0108 l 0.01875,0.004 z"
         style="fill:#3a4146;fill-opacity:1;fill-rule:nonzero;stroke:none"
         id="path350"
         inkscape:connector-curvature="0" /><path
         d="m 21.787132,119.38569 c -0.09376,0 -0.170476,-0.0748 -0.170476,-0.16623 0,-0.0923 0.07671,-0.16624 0.170476,-0.16624 1.114914,0 5.277088,-0.87771 5.277088,-5.17487 0,-1.49776 -0.464548,-2.2026 -1.003252,-3.01964 -0.508019,-0.76966 -1.082523,-1.64073 -1.354433,-3.31637 -0.03409,-0.20779 -0.06052,-0.51532 -0.0895,-0.86109 -0.06393,-0.75803 -0.183262,-2.17019 -0.485004,-2.30982 -0.500348,-0.23107 -2.636413,-0.55439 -4.954888,0.0108 l -0.150019,-0.28924 0.116776,-0.0914 c 0.138938,-0.10556 0.199457,-0.15709 0.199457,-0.21029 -0.0051,-0.0116 -0.04177,-0.0416 -0.06222,-0.0582 -0.07671,-0.0607 -0.191785,-0.15294 -0.191785,-0.3225 0,-0.19532 0.164509,-0.27678 0.271909,-0.29755 -0.07245,-0.0432 -0.223324,-0.13133 -0.223324,-0.33995 0,-0.0249 0.01534,-0.0341 0.01875,-0.0549 0,-0.0333 0.01108,-0.0599 0.03069,-0.0881 0.04262,-0.0756 0.102285,-0.13133 0.17218,-0.16042 -0.006,-0.002 -0.01108,-0.004 -0.01619,-0.007 -0.08694,-0.0382 -0.248895,-0.11055 -0.248895,-0.3067 0,-0.22691 0.208833,-0.26431 0.274467,-0.30005 -0.07757,-0.0249 -0.258272,-0.0831 -0.258272,-0.31751 0,-0.20863 0.167919,-0.29673 0.278729,-0.35491 0.119333,-0.064 0.132119,-0.0815 0.132119,-0.12385 0,-0.46046 0.567685,-0.64831 0.753504,-0.70982 0.09291,-0.0324 0.619681,-0.19781 1.397904,-0.19781 0.5907,0 1.326304,0.0956 2.129246,0.41558 0.0878,0.0349 0.129562,0.13299 0.09376,0.21777 -0.0358,0.0848 -0.136381,0.12384 -0.222471,0.0906 -1.744823,-0.69819 -3.134203,-0.26515 -3.288484,-0.21195 -0.346066,0.1147 -0.521657,0.24769 -0.521657,0.39563 0,0.0258 -0.0094,0.0441 -0.01364,0.0665 0.627352,-0.11138 1.605885,-0.21029 2.535832,-0.21029 0.768847,0 1.499337,0.0673 1.954509,0.25185 0.08694,0.0349 0.128709,0.13215 0.09206,0.21693 -0.0358,0.0848 -0.135529,0.12634 -0.222472,0.0898 -1.108947,-0.4505 -4.092278,-0.11969 -4.72304,0.0698 0.0733,0.0241 0.206276,0.0839 0.242076,0.256 0.554047,-0.10722 1.686861,-0.27096 2.773646,-0.27096 0.664857,0 1.310109,0.0615 1.789147,0.23522 0.08779,0.0324 0.132971,0.128 0.09973,0.21444 -0.03239,0.0856 -0.132119,0.12883 -0.219061,0.0973 -1.349319,-0.49039 -4.330093,0.0116 -4.639507,0.10722 0.08012,0.0391 0.179852,0.11054 0.212242,0.24602 0.591552,-0.12467 1.58628,-0.26098 2.598908,-0.26098 0.687872,0 1.379152,0.0632 1.946837,0.23605 0.0895,0.0274 0.139791,0.12052 0.111662,0.20779 -0.02813,0.0889 -0.123595,0.1413 -0.213095,0.10888 -1.553037,-0.47127 -4.07864,-0.0648 -4.671897,0.10141 l 0.0196,0.005 c 0.06478,0.0374 0.178147,0.11055 0.185818,0.26016 0.588143,-0.15294 1.547923,-0.2693 2.510261,-0.2693 0.773109,0 1.542809,0.074 2.106232,0.26265 0.08865,0.0299 0.136381,0.12385 0.105695,0.21112 -0.03068,0.0864 -0.127004,0.13215 -0.216504,0.10389 -1.453309,-0.48706 -4.17496,-0.15459 -4.715369,0.0956 0.07331,0.059 0.171328,0.14545 0.171328,0.29839 0,0.0549 -0.01023,0.10306 -0.02813,0.14795 2.13777,-0.40478 4.059036,-0.12717 4.621607,0.13215 0.444942,0.2053 0.562571,1.20104 0.679347,2.58411 0.02813,0.33496 0.0537,0.63335 0.08609,0.83533 0.260829,1.60665 0.791862,2.41122 1.304143,3.18837 0.543818,0.82618 1.057804,1.60416 1.057804,3.2 0,4.5731 -4.431526,5.50734 -5.61804,5.50734"
         style="fill:#91d9f8;fill-opacity:1;fill-rule:nonzero;stroke:none"
         id="path354"
         inkscape:connector-curvature="0" /><path
         d="m 21.70931,110.15188 c 1.079114,0 1.957066,0.85611 1.957066,1.9092 0,1.05226 -0.877952,1.90837 -1.957066,1.90837 -1.079114,0 -1.957066,-0.85611 -1.957066,-1.90837 0,-1.05309 0.877952,-1.9092 1.957066,-1.9092"
         style="fill:#91d9f8;fill-opacity:1;fill-rule:nonzero;stroke:none"
         id="path358"
         inkscape:connector-curvature="0" /></g><g
       id="button-aux-art"
       transform="translate(-19.79325,-76.8)"><path
         inkscape:connector-curvature="0"
         id="path50"
         style="opacity:0.60000598;fill:#373d42;fill-opacity:1;fill-rule:nonzero;stroke:none"
         d="m 98.487648,110.04557 c 0,-8.18537 -6.802849,-14.819769 -15.196239,-14.819769 -8.392538,0 -15.196239,6.634399 -15.196239,14.819769 0,8.1837 6.803701,14.81811 15.196239,14.81811 8.39339,0 15.196239,-6.63441 15.196239,-14.81811" /><path
         d="m 83.291243,123.20142 c -7.439577,0 -13.491478,-5.90214 -13.491478,-13.15577 0,-7.25528 6.051901,-13.157424 13.491478,-13.157424 7.439577,0 13.491478,5.902144 13.491478,13.157424 0,7.25363 -6.051901,13.15577 -13.491478,13.15577 m 0,-29.637876 c -9.319076,0 -16.901,7.393266 -16.901,16.482106 0,9.08719 7.581924,16.48045 16.901,16.48045 9.319076,0 16.900997,-7.39326 16.900997,-16.48045 0,-9.08884 -7.581921,-16.482106 -16.900997,-16.482106"
         style="fill:#4e5b62;fill-opacity:1;fill-rule:nonzero;stroke:none"
         id="path90"
         inkscape:connector-curvature="0" /><path
         d="m 98.487655,110.04557 c 0,-8.18537 -6.802849,-14.819769 -15.196239,-14.819769 -8.392538,0 -15.196239,6.634399 -15.196239,14.819769 0,8.1837 6.803701,14.81811 15.196239,14.81811 8.39339,0 15.196239,-6.63441 15.196239,-14.81811 z"
         style="fill:none;stroke:#91d9f8;stroke-width:1.68341732;stroke-linecap:butt;stroke-linejoin:miter;stroke-miterlimit:10;stroke-opacity:1;stroke-dasharray:none"
         id="path106"
         inkscape:connector-curvature="0" /><path
         d="m 89.448583,115.92378 c -5.190997,4.31876 -11.030656,-1.23179 -11.227556,-2.85923 1.499338,2.22422 5.742488,3.73279 9.8646,0.14297 3.945669,-3.4344 2.601465,-9.04397 0.993875,-10.5326 3.521184,2.78027 4.890107,9.48781 0.369081,13.24886"
         style="fill:#91d9f8;fill-opacity:1;fill-rule:nonzero;stroke:none"
         id="path362"
         inkscape:connector-curvature="0" /><path
         d="m 78.095813,105.71601 c -3.945669,3.43523 -2.600613,9.04563 -0.993876,10.53425 -3.521183,-2.78109 -4.889254,-9.48864 -0.36908,-13.24968 5.190997,-4.318765 11.031508,1.23262 11.227555,2.85922 -1.499337,-2.22504 -5.741635,-3.73195 -9.864599,-0.14379"
         style="fill:#91d9f8;fill-opacity:1;fill-rule:nonzero;stroke:none"
         id="path366"
         inkscape:connector-curvature="0" /><path
         d="m 85.530872,109.46192 c 0,1.31408 -1.092752,2.37964 -2.440365,2.37964 -1.347614,0 -2.440366,-1.06556 -2.440366,-2.37964 0,-1.31408 1.092752,-2.37964 2.440366,-2.37964 1.347613,0 2.440365,1.06556 2.440365,2.37964"
         style="fill:#91d9f8;fill-opacity:1;fill-rule:nonzero;stroke:none"
         id="path370"
         inkscape:connector-curvature="0" /></g><g
       id="button-jets-art"
       transform="translate(-37.80675,-76.8)"><path
         inkscape:connector-curvature="0"
         id="path66"
         style="opacity:0.60000598;fill:#373d42;fill-opacity:1;fill-rule:nonzero;stroke:none"
         d="m 159.88231,110.04067 c 0,-8.1837 -6.802,-14.818107 -15.19624,-14.818107 -8.39169,0 -15.19624,6.634407 -15.19624,14.818107 0,8.18537 6.80455,14.81977 15.19624,14.81977 8.39424,0 15.19624,-6.6344 15.19624,-14.81977" /><path
         d="m 144.68599,123.19818 c -7.43958,0 -13.49148,-5.90297 -13.49148,-13.15743 0,-7.25445 6.0519,-13.155764 13.49148,-13.155764 7.43958,0 13.49148,5.901314 13.49148,13.155764 0,7.25446 -6.0519,13.15743 -13.49148,13.15743 m 0,-29.637876 c -9.31908,0 -16.901,7.392426 -16.901,16.480446 0,9.08802 7.58192,16.48211 16.901,16.48211 9.31908,0 16.901,-7.39409 16.901,-16.48211 0,-9.08802 -7.58192,-16.480446 -16.901,-16.480446"
         style="fill:#4e5b62;fill-opacity:1;fill-rule:nonzero;stroke:none"
         id="path94"
         inkscape:connector-curvature="0" /><path
         d="m 159.88232,110.04067 c 0,-8.1837 -6.802,-14.818107 -15.19624,-14.818107 -8.39169,0 -15.19624,6.634407 -15.19624,14.818107 0,8.18537 6.80455,14.81977 15.19624,14.81977 8.39424,0 15.19624,-6.6344 15.19624,-14.81977 z"
         style="fill:none;stroke:#91d9f8;stroke-width:1.68341732;stroke-linecap:butt;stroke-linejoin:miter;stroke-miterlimit:10;stroke-opacity:1;stroke-dasharray:none"
         id="path110"
         inkscape:connector-curvature="0" /><path
         d="m 135.19448,109.76472 c 0,4.07938 1.01519,6.81975 1.96218,6.81975 l 0.79612,-0.0116 c -0.99728,-0.97995 -1.57179,-3.91066 -1.57179,-6.76241 8.6e-4,-2.90909 0.60093,-5.89383 1.63402,-6.8131 l -0.85579,-0.0507 c -0.94955,0 -1.96474,2.73954 -1.96474,6.81809 m 4.37953,6.02599 c -0.0904,0.0374 -0.18326,0.0632 -0.28128,0.0632 -1.23937,0 -1.90934,-3.13683 -1.90934,-6.08915 0,-2.95149 0.66997,-6.08915 1.90934,-6.08915 0.0733,0 0.1432,0.0133 0.21224,0.0357 -0.26168,-0.43055 -0.54382,-0.67076 -0.81403,-0.67325 l -0.006,0 c -0.9487,0.003 -1.96218,2.72374 -1.96303,6.77237 0,4.05196 1.01518,6.77404 1.96473,6.77404 0.29748,0 0.6069,-0.28509 0.88733,-0.79376 m 1.24874,-7.43233 -0.0119,8.3e-4 c -0.002,-0.0283 -0.006,-0.0515 -0.009,-0.079 -0.0656,-0.24104 -0.14064,-0.41642 -0.21309,-0.52114 l -0.003,0.002 c -0.0239,-0.0324 -0.0477,-0.0573 -0.0733,-0.0898 -0.0213,-0.0158 -0.0426,-0.0299 -0.0614,-0.0299 -0.18752,0 -0.53018,0.81953 -0.53018,2.15855 0,1.33818 0.34266,2.15772 0.53018,2.15772 0.18753,0 0.53104,-0.81954 0.53104,-2.15772 0,-0.59429 -0.0691,-1.07886 -0.16025,-1.44208 m -1.24192,1.44208 c 0,-1.05642 0.21224,-2.18016 0.67082,-2.43616 -0.27532,-0.28675 -0.55319,-0.4854 -0.84385,-0.59096 -0.15087,-0.054 -0.21054,-0.0499 -0.31538,0.0823 -0.55746,0.70484 -0.60434,1.88344 -0.60434,2.93154 0,1.4479 0.19775,2.38962 0.61627,2.95814 0.0256,0.0258 0.16366,0.11553 0.26679,0.0765 0.3026,-0.11553 0.59497,-0.31335 0.87028,-0.58929 -0.45176,-0.26515 -0.66059,-1.38307 -0.66059,-2.43201 m 1.11918,2.42536 c -0.37079,0.43304 -0.77397,0.74223 -1.20527,0.90597 -0.28981,0.11055 -0.5907,-0.0889 -0.6606,-0.18535 -0.4688,-0.63501 -0.68701,-1.63907 -0.68701,-3.15928 0,-1.10379 0.052,-2.34722 0.67593,-3.13434 0.24208,-0.3067 0.50291,-0.26348 0.70322,-0.19117 0.41937,0.1521 0.80891,0.4613 1.18736,0.9226 -0.28299,-2.19928 -0.90949,-3.37622 -1.42091,-3.37622 -0.74158,0 -1.56753,2.36468 -1.56753,5.75669 0,3.39284 0.82595,5.75669 1.56753,5.75669 0.49949,0 1.11747,-1.15117 1.40728,-3.29559 m -1.95196,-9.51691 0,0.004 c 0.54212,0.0382 1.03479,0.59262 1.42945,1.61413 0.51483,0.83367 0.8413,2.35554 0.96319,3.88905 0.12189,0.45714 0.18326,1.02816 0.18326,1.58421 0,0.56852 -0.0631,1.15366 -0.19179,1.61496 -0.11336,1.34484 -0.40317,2.82349 -0.89159,3.68874 l 0.007,0.003 c -0.41937,1.18359 -0.95893,1.80946 -1.56071,1.80946 -0.0528,0 -0.10314,-0.0141 -0.15428,-0.0241 l 0,0.005 -1.37318,0.0191 c -1.44394,0 -2.30569,-3.63637 -2.30569,-7.15222 0,-3.51502 0.86175,-7.15139 2.31592,-7.15139 l 1.5786,0.0956 z"
         style="fill:#91d9f8;fill-opacity:1;fill-rule:nonzero;stroke:none"
         id="path118"
         inkscape:connector-curvature="0" /><path
         d="m 150.77421,111.67782 c 0.43983,0.18369 0.73305,0.32249 0.83278,0.36987 l -0.15258,0.29839 c -0.0972,-0.0474 -0.38442,-0.18203 -0.81402,-0.36239 l 0.13382,-0.30587 z"
         style="fill:#91d9f8;fill-opacity:1;fill-rule:nonzero;stroke:none"
         id="path122"
         inkscape:connector-curvature="0" /><path
         d="m 151.36687,110.05771 c 0.0332,-0.43636 0.34692,-0.52198 0.54467,-0.52198 0.20031,0 0.63417,0.0108 0.68787,0.3624 0.0733,0.46213 -0.49864,0.64831 -0.6981,0.64831 -0.1986,0 -0.56513,-0.0864 -0.53444,-0.48873"
         style="fill:#91d9f8;fill-opacity:1;fill-rule:nonzero;stroke:none"
         id="path126"
         inkscape:connector-curvature="0" /><path
         d="m 149.1834,110.41976 c 0.20457,-0.34826 0.5745,0.0549 0.52336,0.16956 -0.0972,0.22358 -0.65377,0.054 -0.52336,-0.16956"
         style="fill:#91d9f8;fill-opacity:1;fill-rule:nonzero;stroke:none"
         id="path130"
         inkscape:connector-curvature="0" /><path
         d="m 148.50756,112.27119 c 0,0.26597 -0.62735,0.56686 -0.62735,-0.0407 0,-0.60592 0.62735,-0.24685 0.62735,0.0407"
         style="fill:#91d9f8;fill-opacity:1;fill-rule:nonzero;stroke:none"
         id="path134"
         inkscape:connector-curvature="0" /><path
         d="m 154.44337,116.36862 c 0,-0.0224 0.009,-0.0424 0.0136,-0.064 -1.5556,-1.71221 -5.29755,-5.15658 -10.76642,-5.95451 2.58783,0.94172 4.29088,2.85757 4.73412,3.48261 0.13042,0.0241 0.25572,0.10223 0.30089,0.2161 0.0759,0.19117 0.13042,0.35076 -0.0656,0.45798 -0.14491,0.0781 -0.38102,0.0532 -0.45858,-0.0956 -0.0614,-0.12218 -0.15087,-0.30254 -0.0929,-0.44135 -0.53018,-0.71896 -2.73359,-3.10774 -5.91978,-3.6879 l 0.0341,-0.17455 -0.005,0 0.003,-0.3333 c 0.0341,0 0.0622,-0.003 0.0955,-0.003 l 0,-0.002 c 0.008,8.3e-4 0.0153,8.3e-4 0.0222,0.002 1.72863,-0.0141 2.56226,-0.62255 2.96544,-0.92094 0.0273,-0.0199 0.046,-0.0324 0.069,-0.049 0.11337,-0.25101 0.47478,-0.49039 0.57877,-0.26514 0.0656,0.14379 -0.17304,0.43553 -0.37335,0.52945 -0.0222,0.0166 -0.0418,0.0291 -0.0682,0.049 -0.24207,0.17954 -0.63673,0.46297 -1.25385,0.68239 3.12994,-0.30005 5.50894,-2.19512 6.12435,-2.73704 -0.0639,-0.36156 0.5532,-0.7306 0.74072,-0.4081 0.14065,0.2402 -0.21224,0.64166 -0.485,0.64166 -0.48501,0.45714 -1.75164,1.4213 -3.46578,2.10951 1.49763,-0.25933 2.77365,-0.54857 3.09073,-0.65746 l 0.11337,0.31335 c -0.47222,0.16208 -3.02851,0.7173 -5.33505,0.99575 1.87183,0.25267 3.67802,0.82535 5.00944,1.33486 l -0.12445,0.30919 c -0.9845,-0.37652 -2.23494,-0.78545 -3.57318,-1.07304 4.16132,1.32406 7.03811,4.00375 8.3593,5.45996 0.0111,-0.002 0.0205,-0.007 0.0315,-0.007 0.1645,0 0.29833,0.13049 0.29833,0.29091 0,0.16042 -0.13383,0.29091 -0.29833,0.29091 -0.16451,0 -0.29919,-0.13049 -0.29919,-0.29091"
         style="fill:#91d9f8;fill-opacity:1;fill-rule:nonzero;stroke:none"
         id="path138"
         inkscape:connector-curvature="0" /></g><g
       id="button-aux2-art"
       transform="translate(-55.289875,-75.961016)"><path
         inkscape:connector-curvature="0"
         id="path82"
         style="opacity:0.60000598;fill:#373d42;fill-opacity:1;fill-rule:nonzero;stroke:none"
         d="m 221.27868,110.05854 c 0,-8.18537 -6.8037,-14.819769 -15.19794,-14.819769 -8.39254,0 -15.19624,6.634399 -15.19624,14.819769 0,8.1837 6.8037,14.81811 15.19624,14.81811 8.39424,0 15.19794,-6.63441 15.19794,-14.81811" /><path
         d="m 206.08066,123.21438 c -7.43958,0 -13.49148,-5.90214 -13.49148,-13.15577 0,-7.25528 6.0519,-13.157424 13.49148,-13.157424 7.44043,0 13.49318,5.902144 13.49318,13.157424 0,7.25363 -6.05275,13.15577 -13.49318,13.15577 m 0,-29.637876 c -9.31908,0 -16.901,7.393266 -16.901,16.482106 0,9.08719 7.58192,16.48045 16.901,16.48045 9.32078,0 16.9027,-7.39326 16.9027,-16.48045 0,-9.08884 -7.58192,-16.482106 -16.9027,-16.482106"
         style="fill:#4e5b62;fill-opacity:1;fill-rule:nonzero;stroke:none"
         id="path98"
         inkscape:connector-curvature="0" /><path
         d="m 221.27869,110.05854 c 0,-8.18537 -6.8037,-14.819769 -15.19794,-14.819769 -8.39254,0 -15.19624,6.634399 -15.19624,14.819769 0,8.1837 6.8037,14.81811 15.19624,14.81811 8.39424,0 15.19794,-6.63441 15.19794,-14.81811 z"
         style="fill:none;stroke:#91d9f8;stroke-width:1.68341732;stroke-linecap:butt;stroke-linejoin:miter;stroke-miterlimit:10;stroke-opacity:1;stroke-dasharray:none"
         id="path114"
         inkscape:connector-curvature="0" /><path
         d="m 195.28858,109.76472 c 0,4.07938 1.01519,6.81975 1.96218,6.81975 l 0.79612,-0.0116 c -0.99728,-0.97995 -1.57179,-3.91066 -1.57179,-6.76241 8.6e-4,-2.90909 0.60093,-5.89383 1.63402,-6.8131 l -0.85579,-0.0507 c -0.94955,0 -1.96474,2.73954 -1.96474,6.81809 m 4.37953,6.02599 c -0.0904,0.0374 -0.18326,0.0632 -0.28128,0.0632 -1.23937,0 -1.90934,-3.13683 -1.90934,-6.08915 0,-2.95149 0.66997,-6.08915 1.90934,-6.08915 0.0733,0 0.1432,0.0133 0.21224,0.0357 -0.26168,-0.43055 -0.54382,-0.67076 -0.81403,-0.67325 l -0.006,0 c -0.9487,0.003 -1.96218,2.72374 -1.96303,6.77237 0,4.05196 1.01518,6.77404 1.96473,6.77404 0.29748,0 0.6069,-0.28509 0.88733,-0.79376 m 1.24874,-7.43233 -0.0119,8.3e-4 c -0.002,-0.0283 -0.006,-0.0515 -0.009,-0.079 -0.0656,-0.24104 -0.14064,-0.41642 -0.21309,-0.52114 l -0.003,0.002 c -0.0239,-0.0324 -0.0477,-0.0573 -0.0733,-0.0898 -0.0213,-0.0158 -0.0426,-0.0299 -0.0614,-0.0299 -0.18752,0 -0.53018,0.81953 -0.53018,2.15855 0,1.33818 0.34266,2.15772 0.53018,2.15772 0.18753,0 0.53104,-0.81954 0.53104,-2.15772 0,-0.59429 -0.0691,-1.07886 -0.16025,-1.44208 m -1.24192,1.44208 c 0,-1.05642 0.21224,-2.18016 0.67082,-2.43616 -0.27532,-0.28675 -0.55319,-0.4854 -0.84385,-0.59096 -0.15087,-0.054 -0.21054,-0.0499 -0.31538,0.0823 -0.55746,0.70484 -0.60434,1.88344 -0.60434,2.93154 0,1.4479 0.19775,2.38962 0.61627,2.95814 0.0256,0.0258 0.16366,0.11553 0.26679,0.0765 0.3026,-0.11553 0.59497,-0.31335 0.87028,-0.58929 -0.45176,-0.26515 -0.66059,-1.38307 -0.66059,-2.43201 m 1.11918,2.42536 c -0.37079,0.43304 -0.77397,0.74223 -1.20527,0.90597 -0.28981,0.11055 -0.5907,-0.0889 -0.6606,-0.18535 -0.4688,-0.63501 -0.68701,-1.63907 -0.68701,-3.15928 0,-1.10379 0.052,-2.34722 0.67593,-3.13434 0.24208,-0.3067 0.50291,-0.26348 0.70322,-0.19117 0.41937,0.1521 0.80891,0.4613 1.18736,0.9226 -0.28299,-2.19928 -0.90949,-3.37622 -1.42091,-3.37622 -0.74158,0 -1.56753,2.36468 -1.56753,5.75669 0,3.39284 0.82595,5.75669 1.56753,5.75669 0.49949,0 1.11747,-1.15117 1.40728,-3.29559 m -1.95196,-9.51691 0,0.004 c 0.54212,0.0382 1.03479,0.59262 1.42945,1.61413 0.51483,0.83367 0.8413,2.35554 0.96319,3.88905 0.12189,0.45714 0.18326,1.02816 0.18326,1.58421 0,0.56852 -0.0631,1.15366 -0.19179,1.61496 -0.11336,1.34484 -0.40317,2.82349 -0.89159,3.68874 l 0.007,0.003 c -0.41937,1.18359 -0.95893,1.80946 -1.56071,1.80946 -0.0528,0 -0.10314,-0.0141 -0.15428,-0.0241 l 0,0.005 -1.37318,0.0191 c -1.44394,0 -2.30569,-3.63637 -2.30569,-7.15222 0,-3.51502 0.86175,-7.15139 2.31592,-7.15139 l 1.5786,0.0956 z"
         style="fill:#91d9f8;fill-opacity:1;fill-rule:nonzero;stroke:none"
         id="path142"
         inkscape:connector-curvature="0" /><path
         d="m 210.8678,111.67782 c 0.44068,0.18369 0.73305,0.32249 0.83363,0.36987 l -0.15258,0.29839 c -0.0972,-0.0474 -0.38442,-0.18203 -0.81402,-0.36239 l 0.13297,-0.30587 z"
         style="fill:#91d9f8;fill-opacity:1;fill-rule:nonzero;stroke:none"
         id="path146"
         inkscape:connector-curvature="0" /><path
         d="m 211.46045,110.05771 c 0.0332,-0.43636 0.34777,-0.52198 0.54552,-0.52198 0.19946,0 0.63332,0.0108 0.68787,0.3624 0.0725,0.46213 -0.49949,0.64831 -0.69895,0.64831 -0.19775,0 -0.56427,-0.0864 -0.53444,-0.48873"
         style="fill:#91d9f8;fill-opacity:1;fill-rule:nonzero;stroke:none"
         id="path150"
         inkscape:connector-curvature="0" /><path
         d="m 209.27793,110.41976 c 0.20457,-0.34826 0.5745,0.0549 0.52251,0.16956 -0.0963,0.22358 -0.65378,0.054 -0.52251,-0.16956"
         style="fill:#91d9f8;fill-opacity:1;fill-rule:nonzero;stroke:none"
         id="path154"
         inkscape:connector-curvature="0" /><path
         d="m 208.602,112.27119 c 0,0.26597 -0.62735,0.56686 -0.62735,-0.0407 0,-0.60592 0.62735,-0.24685 0.62735,0.0407"
         style="fill:#91d9f8;fill-opacity:1;fill-rule:nonzero;stroke:none"
         id="path158"
         inkscape:connector-curvature="0" /><path
         d="m 214.53703,116.36862 c 0,-0.0224 0.009,-0.0424 0.0136,-0.064 -1.5556,-1.71221 -5.29755,-5.15658 -10.76557,-5.95451 2.58783,0.94172 4.29089,2.85757 4.73327,3.48261 0.13042,0.0241 0.25572,0.10223 0.30089,0.2161 0.0759,0.19117 0.13042,0.35076 -0.0648,0.45798 -0.14576,0.0781 -0.38187,0.0532 -0.45858,-0.0956 -0.0622,-0.12218 -0.15172,-0.30254 -0.0938,-0.44135 -0.53018,-0.71896 -2.73359,-3.10774 -5.91978,-3.6879 l 0.0341,-0.17455 -0.005,0 0.003,-0.3333 c 0.0341,0 0.0622,-0.003 0.0955,-0.003 l 0,-0.002 c 0.008,8.3e-4 0.0153,8.3e-4 0.023,0.002 1.72777,-0.0141 2.56225,-0.62255 2.96458,-0.92094 0.0281,-0.0199 0.046,-0.0324 0.069,-0.049 0.11337,-0.25101 0.47478,-0.49039 0.57877,-0.26514 0.0656,0.14379 -0.17219,0.43553 -0.37249,0.52945 -0.023,0.0166 -0.0418,0.0291 -0.0682,0.049 -0.24292,0.17954 -0.63758,0.46297 -1.25385,0.68239 3.12994,-0.30005 5.50809,-2.19512 6.1235,-2.73704 -0.0631,-0.36156 0.55405,-0.7306 0.74158,-0.4081 0.13979,0.2402 -0.21225,0.64166 -0.48501,0.64166 -0.485,0.45714 -1.75164,1.4213 -3.46578,2.10951 1.49763,-0.25933 2.77365,-0.54857 3.09073,-0.65746 l 0.11337,0.31335 c -0.47222,0.16208 -3.02936,0.7173 -5.33505,0.99575 1.87098,0.25267 3.67717,0.82535 5.00944,1.33486 l -0.1253,0.30919 c -0.98365,-0.37652 -2.23409,-0.78545 -3.57233,-1.07304 4.16133,1.32406 7.03726,4.00375 8.35845,5.45996 0.0111,-0.002 0.0205,-0.007 0.0324,-0.007 0.16451,0 0.29748,0.13049 0.29748,0.29091 0,0.16042 -0.13297,0.29091 -0.29748,0.29091 -0.16536,0 -0.30004,-0.13049 -0.30004,-0.29091"
         style="fill:#91d9f8;fill-opacity:1;fill-rule:nonzero;stroke:none"
         id="path162"
         inkscape:connector-curvature="0" /></g><path
       inkscape:connector-curvature="0"
       d="m 24.901866,152.30183 4.0818,-2.7212 19.048383,0 4.081796,2.7212 -4.081796,2.7212 -19.048383,0 z"
       style="fill:#ff0000;stroke:#2a2a2a;stroke-width:0.70050883;stroke-linecap:round;stroke-linejoin:round;stroke-miterlimit:4;stroke-dasharray:none;overflow:hidden"
       id="digit-d3-sa" /><path
       inkscape:connector-curvature="0"
       d="m 54.47639,152.09501 -3.388708,-3.54735 -3.307616,-18.75912 1.970963,-4.49216 3.388708,3.54709 3.307616,18.75912 z"
       style="fill:#ff0000;stroke:#2a2a2a;stroke-width:0.70050883;stroke-linecap:round;stroke-linejoin:round;stroke-miterlimit:4;stroke-dasharray:none;overflow:hidden"
       id="digit-d3-sb" /><path
       inkscape:connector-curvature="0"
       d="m 49.751029,124.88304 -3.388708,-3.54736 -3.307616,-18.75912 1.970964,-4.49215 3.388708,3.54708 3.307616,18.75912 z"
       style="fill:#ff0000;stroke:#2a2a2a;stroke-width:0.70050883;stroke-linecap:round;stroke-linejoin:round;stroke-miterlimit:4;stroke-dasharray:none;overflow:hidden"
       id="digit-d3-sc" /><path
       inkscape:connector-curvature="0"
       d="m 15.451145,97.87786 4.081798,-2.72119 19.048385,0 4.081797,2.72119 -4.081797,2.72121 -19.048385,0 z"
       style="fill:#ff0000;stroke:#2a2a2a;stroke-width:0.70050883;stroke-linecap:round;stroke-linejoin:round;stroke-miterlimit:4;stroke-dasharray:none;overflow:hidden"
       id="digit-d3-sd" /><path
       inkscape:connector-curvature="0"
       d="m 17.81369,124.88304 -3.388708,-3.54736 -3.307616,-18.75912 1.970963,-4.49215 3.388708,3.54708 3.307616,18.75912 z"
       style="fill:#ff0000;stroke:#2a2a2a;stroke-width:0.70050883;stroke-linecap:round;stroke-linejoin:round;stroke-miterlimit:4;stroke-dasharray:none;overflow:hidden"
       id="digit-d3-se" /><path
       inkscape:connector-curvature="0"
       d="m 22.53905,152.09501 -3.388708,-3.54735 -3.307616,-18.75912 1.970964,-4.49216 3.388708,3.54709 3.307616,18.75912 z"
       style="fill:#ff0000;stroke:#2a2a2a;stroke-width:0.70050883;stroke-linecap:round;stroke-linejoin:round;stroke-miterlimit:4;stroke-dasharray:none;overflow:hidden"
       id="digit-d3-sf" /><path
       inkscape:connector-curvature="0"
       d="m 20.176506,125.08985 4.081797,-2.7212 19.048386,0 4.081796,2.7212 -4.081796,2.72119 -19.048386,0 z"
       style="fill:#ff0000;stroke:#2a2a2a;stroke-width:0.70050883;stroke-linecap:round;stroke-linejoin:round;stroke-miterlimit:4;stroke-dasharray:none;overflow:hidden"
       id="digit-d3-sg" /><circle
       transform="matrix(2.7211979,0,0,-2.7211979,1.8451563,156.38362)"
       sodipodi:ry="1"
       sodipodi:rx="1"
       sodipodi:cy="21.5"
       sodipodi:cx="17.736483"
       cx="17.736483"
       cy="21.5"
       r="1"
       style="fill:#ff0000;stroke:#2a2a2a;stroke-width:0.25742662;stroke-linecap:round;stroke-linejoin:round;stroke-miterlimit:4;stroke-dasharray:none;overflow:hidden"
       id="digit-d3-sh" /><path
       inkscape:connector-curvature="0"
       d="m 69.727888,152.30183 4.081796,-2.7212 19.048389,0 4.081794,2.7212 -4.081794,2.7212 -19.048389,0 z"
       style="fill:#ff0000;stroke:#2a2a2a;stroke-width:0.70050883;stroke-linecap:round;stroke-linejoin:round;stroke-miterlimit:4;stroke-dasharray:none;overflow:hidden"
       id="digit-d2-sa" /><path
       inkscape:connector-curvature="0"
       d="m 99.302684,152.09501 -3.388712,-3.54735 -3.30761,-18.75912 1.970961,-4.49216 3.388711,3.54709 3.307606,18.75912 z"
       style="fill:#ff0000;stroke:#2a2a2a;stroke-width:0.70050883;stroke-linecap:round;stroke-linejoin:round;stroke-miterlimit:4;stroke-dasharray:none;overflow:hidden"
       id="digit-d2-sb" /><path
       inkscape:connector-curvature="0"
       d="m 94.577323,124.88304 -3.388712,-3.54736 -3.307612,-18.75912 1.970964,-4.49215 3.38871,3.54708 3.30761,18.75912 z"
       style="fill:#ff0000;stroke:#2a2a2a;stroke-width:0.70050883;stroke-linecap:round;stroke-linejoin:round;stroke-miterlimit:4;stroke-dasharray:none;overflow:hidden"
       id="digit-d2-sc" /><path
       inkscape:connector-curvature="0"
       d="m 60.277439,97.87786 4.081797,-2.72119 19.048385,0 4.081798,2.72119 -4.081798,2.72121 -19.048385,0 z"
       style="fill:#ff0000;stroke:#2a2a2a;stroke-width:0.70050883;stroke-linecap:round;stroke-linejoin:round;stroke-miterlimit:4;stroke-dasharray:none;overflow:hidden"
       id="digit-d2-sd" /><path
       inkscape:connector-curvature="0"
       d="m 62.639983,124.88304 -3.388707,-3.54736 -3.307617,-18.75912 1.970964,-4.49215 3.388708,3.54708 3.307616,18.75912 z"
       style="fill:#ff0000;stroke:#2a2a2a;stroke-width:0.70050883;stroke-linecap:round;stroke-linejoin:round;stroke-miterlimit:4;stroke-dasharray:none;overflow:hidden"
       id="digit-d2-se" /><path
       inkscape:connector-curvature="0"
       d="m 67.365344,152.09501 -3.388708,-3.54735 -3.307616,-18.75912 1.970963,-4.49216 3.388708,3.54709 3.307616,18.75912 z"
       style="fill:#ff0000;stroke:#2a2a2a;stroke-width:0.70050883;stroke-linecap:round;stroke-linejoin:round;stroke-miterlimit:4;stroke-dasharray:none;overflow:hidden"
       id="digit-d2-sf" /><path
       inkscape:connector-curvature="0"
       d="m 65.002528,125.08985 4.081796,-2.7212 19.048386,0 4.081796,2.7212 -4.081796,2.72119 -19.048386,0 z"
       style="fill:#ff0000;stroke:#2a2a2a;stroke-width:0.70050883;stroke-linecap:round;stroke-linejoin:round;stroke-miterlimit:4;stroke-dasharray:none;overflow:hidden"
       id="digit-d2-sg" /><circle
       transform="matrix(2.7211979,0,0,-2.7211979,1.8451563,156.38362)"
       sodipodi:ry="1"
       sodipodi:rx="1"
       sodipodi:cy="21.5"
       sodipodi:cx="34.209446"
       cx="34.209446"
       cy="21.5"
       r="1"
       style="fill:#ff0000;stroke:#2a2a2a;stroke-width:0.25742662;stroke-linecap:round;stroke-linejoin:round;stroke-miterlimit:4;stroke-dasharray:none;overflow:hidden"
       id="digit-d2-sh" /><path
       inkscape:connector-curvature="0"
       d="m 114.55418,152.30183 4.0818,-2.7212 19.04839,0 4.0818,2.7212 -4.0818,2.7212 -19.04839,0 z"
       style="fill:#ff0000;stroke:#2a2a2a;stroke-width:0.70050883;stroke-linecap:round;stroke-linejoin:round;stroke-miterlimit:4;stroke-dasharray:none;overflow:hidden"
       id="digit-d1-sa" /><path
       inkscape:connector-curvature="0"
       d="m 144.12871,152.09501 -3.38871,-3.54735 -3.30762,-18.75912 1.97097,-4.49216 3.38871,3.54709 3.30761,18.75912 z"
       style="fill:#ff0000;stroke:#2a2a2a;stroke-width:0.70050883;stroke-linecap:round;stroke-linejoin:round;stroke-miterlimit:4;stroke-dasharray:none;overflow:hidden"
       id="digit-d1-sb" /><path
       inkscape:connector-curvature="0"
       d="m 139.40335,124.88304 -3.38871,-3.54736 -3.30762,-18.75912 1.97097,-4.49215 3.38871,3.54708 3.30761,18.75912 z"
       style="fill:#ff0000;stroke:#2a2a2a;stroke-width:0.70050883;stroke-linecap:round;stroke-linejoin:round;stroke-miterlimit:4;stroke-dasharray:none;overflow:hidden"
       id="digit-d1-sc" /><path
       inkscape:connector-curvature="0"
       d="m 105.10346,97.87786 4.0818,-2.72119 19.04839,0 4.0818,2.72119 -4.0818,2.72121 -19.04839,0 z"
       style="fill:#ff0000;stroke:#2a2a2a;stroke-width:0.70050883;stroke-linecap:round;stroke-linejoin:round;stroke-miterlimit:4;stroke-dasharray:none;overflow:hidden"
       id="digit-d1-sd" /><path
       inkscape:connector-curvature="0"
       d="m 107.46627,124.88304 -3.3887,-3.54736 -3.30762,-18.75912 1.97097,-4.49215 3.3887,3.54708 3.30762,18.75912 z"
       style="fill:#ff0000;stroke:#2a2a2a;stroke-width:0.70050883;stroke-linecap:round;stroke-linejoin:round;stroke-miterlimit:4;stroke-dasharray:none;overflow:hidden"
       id="digit-d1-se" /><path
       inkscape:connector-curvature="0"
       d="m 112.19136,152.09501 -3.3887,-3.54735 -3.30762,-18.75912 1.97096,-4.49216 3.38871,3.54709 3.30762,18.75912 z"
       style="fill:#ff0000;stroke:#2a2a2a;stroke-width:0.70050883;stroke-linecap:round;stroke-linejoin:round;stroke-miterlimit:4;stroke-dasharray:none;overflow:hidden"
       id="digit-d1-sf" /><path
       inkscape:connector-curvature="0"
       d="m 109.82882,125.08985 4.0818,-2.7212 19.04839,0 4.0818,2.7212 -4.0818,2.72119 -19.04839,0 z"
       style="fill:#ff0000;stroke:#2a2a2a;stroke-width:0.70050883;stroke-linecap:round;stroke-linejoin:round;stroke-miterlimit:4;stroke-dasharray:none;overflow:hidden"
       id="digit-d1-sg" /><circle
       transform="matrix(2.7211979,0,0,-2.7211979,1.8451563,156.38362)"
       sodipodi:ry="1"
       sodipodi:rx="1"
       sodipodi:cy="1.5"
       sodipodi:cx="37.682407"
       cx="37.682407"
       cy="1.5"
       r="1"
       style="fill:#ff0000;stroke:#2a2a2a;stroke-width:0.25742662;stroke-linecap:round;stroke-linejoin:round;stroke-miterlimit:4;stroke-dasharray:none;overflow:hidden"
       id="digit-d1-sh" /><path
       inkscape:connector-curvature="0"
       d="m 159.38048,152.30183 4.0818,-2.7212 19.04838,0 4.0818,2.7212 -4.0818,2.7212 -19.04838,0 z"
       style="fill:#ff0000;stroke:#2a2a2a;stroke-width:0.70050883;stroke-linecap:round;stroke-linejoin:round;stroke-miterlimit:4;stroke-dasharray:none;overflow:hidden"
       id="digit-d0-sa" /><path
       inkscape:connector-curvature="0"
       d="m 188.95501,152.09501 -3.38871,-3.54735 -3.30762,-18.75912 1.97097,-4.49216 3.3887,3.54709 3.30762,18.75912 z"
       style="fill:#ff0000;stroke:#2a2a2a;stroke-width:0.70050883;stroke-linecap:round;stroke-linejoin:round;stroke-miterlimit:4;stroke-dasharray:none;overflow:hidden"
       id="digit-d0-sb" /><path
       inkscape:connector-curvature="0"
       d="m 184.22965,124.88304 -3.38871,-3.54736 -3.30762,-18.75912 1.97097,-4.49215 3.3887,3.54708 3.30762,18.75912 z"
       style="fill:#ff0000;stroke:#2a2a2a;stroke-width:0.70050883;stroke-linecap:round;stroke-linejoin:round;stroke-miterlimit:4;stroke-dasharray:none;overflow:hidden"
       id="digit-d0-sc" /><path
       inkscape:connector-curvature="0"
       d="m 149.92976,97.87786 4.08179,-2.72119 19.0484,0 4.08179,2.72119 -4.08179,2.72121 -19.0484,0 z"
       style="fill:#ff0000;stroke:#2a2a2a;stroke-width:0.70050883;stroke-linecap:round;stroke-linejoin:round;stroke-miterlimit:4;stroke-dasharray:none;overflow:hidden"
       id="digit-d0-sd" /><path
       inkscape:connector-curvature="0"
       d="m 152.2923,124.88304 -3.3887,-3.54736 -3.30762,-18.75912 1.97096,-4.49215 3.38871,3.54708 3.30761,18.75912 z"
       style="fill:#ff0000;stroke:#2a2a2a;stroke-width:0.70050883;stroke-linecap:round;stroke-linejoin:round;stroke-miterlimit:4;stroke-dasharray:none;overflow:hidden"
       id="digit-d0-se" /><path
       inkscape:connector-curvature="0"
       d="m 157.01766,152.09501 -3.38871,-3.54735 -3.30761,-18.75912 1.97096,-4.49216 3.38872,3.54709 3.30761,18.75912 z"
       style="fill:#ff0000;stroke:#2a2a2a;stroke-width:0.70050883;stroke-linecap:round;stroke-linejoin:round;stroke-miterlimit:4;stroke-dasharray:none;overflow:hidden"
       id="digit-d0-sf" /><path
       inkscape:connector-curvature="0"
       d="m 154.65512,125.08985 4.08179,-2.7212 19.0484,0 4.08179,2.7212 -4.08179,2.72119 -19.0484,0 z"
       style="fill:#ff0000;stroke:#2a2a2a;stroke-width:0.70050883;stroke-linecap:round;stroke-linejoin:round;stroke-miterlimit:4;stroke-dasharray:none;overflow:hidden"
       id="digit-d0-sg" /><circle
       transform="matrix(2.7211979,0,0,-2.7211979,1.8451563,156.38362)"
       sodipodi:ry="1"
       sodipodi:rx="1"
       sodipodi:cy="1.5"
       sodipodi:cx="54.155373"
       cx="54.155373"
       cy="1.5"
       r="1"
       style="fill:#ff0000;stroke:#2a2a2a;stroke-width:0.25742662;stroke-linecap:round;stroke-linejoin:round;stroke-miterlimit:4;stroke-dasharray:none;overflow:hidden"
       id="digit-d0-sh" /><rect
       style="fill:none;stroke:#000000;stroke-width:0.87721652;stroke-linecap:round;stroke-linejoin:round;stroke-miterlimit:4;stroke-opacity:1;stroke-dasharray:0.87721653, 2.63164959;stroke-dashoffset:0"
       id="button-light-frame"
       width="35.814449"
       height="48.738899"
       x="0.81505525"
       y="-49.977642"
       transform="scale(1,-1)" /><rect
       style="fill:none;stroke:#000000;stroke-width:0.87982637;stroke-linecap:round;stroke-linejoin:round;stroke-miterlimit:4;stroke-opacity:1;stroke-dasharray:0.87982638, 2.63947914;stroke-dashoffset:0"
       id="button-aux-frame"
       width="35.81184"
       height="49.032913"
       x="45.319717"
       y="-49.976337"
       transform="scale(1,-1)" /><rect
       style="fill:none;stroke:#000000;stroke-width:0.87982637;stroke-linecap:round;stroke-linejoin:round;stroke-miterlimit:4;stroke-opacity:1;stroke-dasharray:0.87982638, 2.63947914;stroke-dashoffset:0"
       id="button-jets-frame"
       width="35.81184"
       height="49.032913"
       x="88.816307"
       y="-49.976337"
       transform="scale(1,-1)" /><rect
       style="fill:none;stroke:#000000;stroke-width:0.88502234;stroke-linecap:round;stroke-linejoin:round;stroke-miterlimit:4;stroke-opacity:1;stroke-dasharray:0.88502235, 2.65506704;stroke-dashoffset:0"
       id="button-aux2-frame"
       width="35.806644"
       height="49.620968"
       x="132.72906"
       y="-50.683853"
       transform="scale(1,-1)" /><text
       xml:space="preserve"
       style="font-size:12px;font-style:normal;font-weight:normal;line-height:125%;letter-spacing:0px;word-spacing:0px;fill:#ff0000;fill-opacity:1;stroke:#000000;stroke-linejoin:round;stroke-opacity:1;font-family:Sans"
       x="285.77859"
       y="29.952335"
       id="text3223"
       sodipodi:linespacing="125%"
       transform="matrix(0.8,0,0,-0.8,0,240)"><tspan
         sodipodi:role="line"
         id="tspan3225"
         x="285.77859"
         y="29.952335" /></text>
<text
       xml:space="preserve"
       style="font-size:9.28244114px;font-style:normal;font-variant:normal;font-weight:normal;font-stretch:normal;text-align:start;line-height:125%;letter-spacing:0px;word-spacing:0px;writing-mode:lr-tb;text-anchor:start;fill:#ff0000;fill-opacity:1;stroke:none;font-family:Sans;-inkscape-font-specification:Sans"
       x="197.27968"
       y="-143.8998"
       id="led-am"
       sodipodi:linespacing="125%"
       transform="scale(1,-1)"><tspan
         sodipodi:role="line"
         id="tspan3997"
         x="197.27968"
         y="-143.8998">AM</tspan></text>
<text
       transform="scale(1,-1)"
       sodipodi:linespacing="125%"
       id="led-heating"
       y="-75.846649"
       x="-0.53457385"
       style="font-size:9.28244114px;font-style:normal;font-variant:normal;font-weight:normal;font-stretch:normal;text-align:start;line-height:125%;letter-spacing:0px;word-spacing:0px;writing-mode:lr-tb;text-anchor:start;fill:#ff0000;fill-opacity:1;stroke:none;font-family:Sans;-inkscape-font-specification:Sans"
       xml:space="preserve"><tspan
         y="-75.846649"
         x="-0.53457385"
         id="tspan4025"
         sodipodi:role="line">Heating</tspan></text>
<text
       xml:space="preserve"
       style="font-size:9.28244114px;font-style:normal;font-variant:normal;font-weight:normal;font-stretch:normal;text-align:start;line-height:125%;letter-spacing:0px;word-spacing:0px;writing-mode:lr-tb;text-anchor:start;fill:#ff0000;fill-opacity:1;stroke:none;font-family:Sans;-inkscape-font-specification:Sans"
       x="-0.14478384"
       y="-59.810707"
       id="led-overheat"
       sodipodi:linespacing="125%"
       transform="scale(1,-1)"><tspan
         sodipodi:role="line"
         id="tspan4041"
         x="-0.14478384"
         y="-59.810707">OverHeat</tspan></text>
<text
       transform="scale(1,-1)"
       sodipodi:linespacing="125%"
       id="led-edit"
       y="-75.846649"
       x="195.72362"
       style="font-size:9.28244114px;font-style:normal;font-variant:normal;font-weight:normal;font-stretch:normal;text-align:start;line-height:125%;letter-spacing:0px;word-spacing:0px;writing-mode:lr-tb;text-anchor:start;fill:#ff0000;fill-opacity:1;stroke:none;font-family:Sans;-inkscape-font-specification:Sans"
       xml:space="preserve"><tspan
         y="-75.846649"
         x="195.72362"
         id="tspan4057"
         sodipodi:role="line">Edit</tspan></text>
<text
       xml:space="preserve"
       style="font-size:9.28244114px;font-style:normal;font-variant:normal;font-weight:normal;font-stretch:normal;text-align:start;line-height:125%;letter-spacing:0px;word-spacing:0px;writing-mode:lr-tb;text-anchor:start;fill:#ff0000;fill-opacity:1;stroke:none;font-family:Sans;-inkscape-font-specification:Sans"
       x="176.9593"
       y="-59.993298"
       id="led-filtering"
       sodipodi:linespacing="125%"
       transform="scale(1,-1)"><tspan
         sodipodi:role="line"
         id="tspan4073"
         x="176.9593"
         y="-59.993298">Filtering</tspan></text>
<text
       transform="scale(1,-1)"
       sodipodi:linespacing="125%"
       id="led-airhi"
       y="-75.846649"
       x="58.425781"
       style="font-size:9.28244114px;font-style:normal;font-variant:normal;font-weight:normal;font-stretch:normal;text-align:start;line-height:125%;letter-spacing:0px;word-spacing:0px;writing-mode:lr-tb;text-anchor:start;fill:#ff0000;fill-opacity:1;stroke:none;font-family:Sans;-inkscape-font-specification:Sans"
       xml:space="preserve"><tspan
         sodipodi:role="line"
         id="tspan3153"
         x="58.425781"
         y="-75.846649">Hi</tspan></text>
<text
       xml:space="preserve"
       style="font-size:9.28244114px;font-style:normal;font-variant:normal;font-weight:normal;font-stretch:normal;text-align:start;line-height:125%;letter-spacing:0px;word-spacing:0px;writing-mode:lr-tb;text-anchor:start;fill:#ff0000;fill-opacity:1;stroke:none;font-family:Sans;-inkscape-font-specification:Sans"
       x="101.92237"
       y="-75.846649"
       id="led-jetshi"
       sodipodi:linespacing="125%"
       transform="scale(1,-1)"><tspan
         sodipodi:role="line"
         id="tspan3163"
         x="101.92237"
         y="-75.846649">Hi</tspan></text>
<text
       transform="scale(1,-1)"
       sodipodi:linespacing="125%"
       id="led-jetslo"
       y="-59.871895"
       x="101.17905"
       style="font-size:9.28244114px;font-style:normal;font-variant:normal;font-weight:normal;font-stretch:normal;text-align:start;line-height:125%;letter-spacing:0px;word-spacing:0px;writing-mode:lr-tb;text-anchor:start;fill:#ff0000;fill-opacity:1;stroke:none;font-family:Sans;-inkscape-font-specification:Sans"
       xml:space="preserve"><tspan
         sodipodi:role="line"
         id="tspan3161"
         x="101.17905"
         y="-59.871895">Lo</tspan></text>
<text
       xml:space="preserve"
       style="font-size:11.19999981px;font-style:normal;font-variant:normal;font-weight:bold;font-stretch:normal;text-align:start;line-height:125%;letter-spacing:0px;word-spacing:0px;writing-mode:lr-tb;text-anchor:start;fill:#91d9f8;fill-opacity:1;stroke:#4c4c4c;stroke-width:0.80000001;stroke-miterlimit:4;stroke-opacity:1;stroke-dasharray:none;font-family:Sans;-inkscape-font-specification:Sans Bold"
       x="-0.5214889"
       y="-4.1889901"
       id="text3235"
       sodipodi:linespacing="125%"
       transform="scale(1,-1)"><tspan
         sodipodi:role="line"
         id="tspan3237"
         x="-0.5214889"
         y="-4.1889901"
         style="font-size:11.19999981px;font-style:normal;font-variant:normal;font-weight:bold;font-stretch:normal;text-align:start;line-height:125%;writing-mode:lr-tb;text-anchor:start;stroke-width:0.80000001;font-family:Sans;-inkscape-font-specification:Sans Bold">LIGHT</tspan></text>
<text
       transform="scale(1,-1)"
       sodipodi:linespacing="125%"
       id="text4019"
       y="-4.1889901"
       x="49.968372"
       style="font-size:11.19999981px;font-style:normal;font-variant:normal;font-weight:bold;font-stretch:normal;text-align:start;line-height:125%;letter-spacing:0px;word-spacing:0px;writing-mode:lr-tb;text-anchor:start;fill:#91d9f8;fill-opacity:1;stroke:#4c4c4c;stroke-width:0.80000001;stroke-miterlimit:4;stroke-opacity:1;stroke-dasharray:none;font-family:Sans;-inkscape-font-specification:Sans Bold"
       xml:space="preserve"><tspan
         sodipodi:role="line"
         id="tspan3158"
         x="49.968372"
         y="-4.1889901">AUX</tspan></text>
<text
       xml:space="preserve"
       style="font-size:11.19999981px;font-style:normal;font-variant:normal;font-weight:bold;font-stretch:normal;text-align:start;line-height:125%;letter-spacing:0px;word-spacing:0px;writing-mode:lr-tb;text-anchor:start;fill:#91d9f8;fill-opacity:1;stroke:#4c4c4c;stroke-width:0.80000001;stroke-miterlimit:4;stroke-opacity:1;stroke-dasharray:none;font-family:Sans;-inkscape-font-specification:Sans Bold"
       x="93.464958"
       y="-4.1889901"
       id="text4023"
       sodipodi:linespacing="125%"
       transform="scale(1,-1)"><tspan
         sodipodi:role="line"
         id="tspan4038"
         x="93.464958"
         y="-4.1889901">JETS</tspan></text>
<text
       transform="scale(1,-1)"
       sodipodi:linespacing="125%"
       id="text4028"
       y="-4.1889901"
       x="131.86496"
       style="font-size:11.19999981px;font-style:normal;font-variant:normal;font-weight:bold;font-stretch:normal;text-align:start;line-height:125%;letter-spacing:0px;word-spacing:0px;writing-mode:lr-tb;text-anchor:start;fill:#91d9f8;fill-opacity:1;stroke:#4c4c4c;stroke-width:0.80000001;stroke-miterlimit:4;stroke-opacity:1;stroke-dasharray:none;font-family:Sans;-inkscape-font-specification:Sans Bold"
       xml:space="preserve"><tspan
         sodipodi:role="line"
         id="tspan3160"
         x="131.86496"
         y="-4.1889901">AUX II</tspan></text>
<text
       xml:space="preserve"
       style="font-size:11.19999981px;font-style:normal;font-variant:normal;font-weight:bold;font-stretch:normal;text-align:start;line-height:125%;letter-spacing:0px;word-spacing:0px;writing-mode:lr-tb;text-anchor:start;fill:#91d9f8;fill-opacity:1;stroke:#4c4c4c;stroke-width:0.80000001;stroke-miterlimit:4;stroke-opacity:1;stroke-dasharray:none;font-family:Sans;-inkscape-font-specification:Sans Bold"
       x="183.06516"
       y="-4.1889901"
       id="text4032"
       sodipodi:linespacing="125%"
       transform="scale(1,-1)"><tspan
         sodipodi:role="line"
         id="tspan4042"
         x="183.06516"
         y="-4.1889901">SET</tspan></text>
<g
       id="g3197"
       transform="translate(-304,-108)" /><g
       id="button-system-art"
       transform="matrix(0.85191181,0,0,0.85191181,-10.181746,-13.237073)"><g
         transform="translate(-304,-108)"
         id="g3205"
         clip-path="url(#clipPath3199)"
         style="opacity:0.60000598"><g
           id="g3207"
           transform="translate(562.5146,162.9922)"><path
             id="path3209-2"
             style="fill:#373d42;fill-opacity:1;fill-rule:nonzero;stroke:none"
             d="m 0,0 c 0,-9.846 -7.981,-17.828 -17.828,-17.828 -9.848,0 -17.829,7.982 -17.829,17.828 0,9.848 7.981,17.83 17.829,17.83 C -7.981,17.83 0,9.848 0,0"
             inkscape:connector-curvature="0" /></g></g><path
         inkscape:connector-curvature="0"
         d="m 246.3936,65.0859 c 0,0 0.136,-2.224 -3.448,-3.281 -0.92,-0.273 -5.14,-1.487 -7.574,-4.06 -0.034,-0.034 -0.064,-0.068 -0.094,-0.1 -3.755,-4.128 -3.425,-8.692 -3.055,-11.036 0.129,1.96 0.795,3.605 1.986,4.801 2.737,2.75 8.262,2.475 11.128,6.606 0,0 -0.834,-3.459 -7.258,-5.686 -3.506,-1.218 -2.114,-3.139 -1.334,-3.476 0,0 -0.002,-0.002 -0.002,-0.006 0.11,-0.053 0.821,-0.456 2.446,-0.71 1.627,-0.252 7.872,0.113 9.243,6.379 1.033,4.715 -2.038,10.569 -2.038,10.569"
         style="fill:#91d9f8;fill-opacity:1;fill-rule:nonzero;stroke:none"
         id="path3225" /><g
         transform="translate(240.6865,70.8223)"
         id="g3227"><path
           id="path3229"
           style="fill:#4e5b62;fill-opacity:1;fill-rule:nonzero;stroke:none"
           d="m 0,0 c -8.729,0 -15.829,-7.102 -15.829,-15.83 0,-8.728 7.1,-15.828 15.829,-15.828 8.728,0 15.828,7.1 15.828,15.828 C 15.828,-7.102 8.728,0 0,0 m 0,-35.658 c -10.934,0 -19.829,8.894 -19.829,19.828 C -19.829,-4.896 -10.934,4 0,4 10.934,4 19.828,-4.896 19.828,-15.83 19.828,-26.764 10.934,-35.658 0,-35.658"
           inkscape:connector-curvature="0" /></g><path
         inkscape:connector-curvature="0"
         d="m 258.5146,54.9922 c 0,-9.846 -7.981,-17.828 -17.828,-17.828 -9.848,0 -17.829,7.982 -17.829,17.828 0,9.848 7.981,17.83 17.829,17.83 9.847,0 17.828,-7.982 17.828,-17.83 z"
         style="fill:none;stroke:#91d9f8;stroke-width:2;stroke-linecap:butt;stroke-linejoin:miter;stroke-miterlimit:10;stroke-opacity:1;stroke-dasharray:none"
         id="path3233" /></g><rect
       transform="scale(1,-1)"
       y="-50.683853"
       x="177.23257"
       height="49.620968"
       width="35.806644"
       id="button-system-frame"
       style="fill:none;stroke:#000000;stroke-width:0.88502234;stroke-linecap:round;stroke-linejoin:round;stroke-miterlimit:4;stroke-opacity:1;stroke-dasharray:0.88502235, 2.65506704;stroke-dashoffset:0" /><text
       xml:space="preserve"
       style="font-size:9.28244114px;font-style:normal;font-variant:normal;font-weight:normal;font-stretch:normal;text-align:start;line-height:125%;letter-spacing:0px;word-spacing:0px;writing-mode:lr-tb;text-anchor:start;fill:#ff0000;fill-opacity:1;stroke:none;font-family:Sans;-inkscape-font-specification:Sans"
       x="57.682461"
       y="-59.871895"
       id="led-airlo"
       sodipodi:linespacing="125%"
       transform="scale(1,-1)"><tspan
         sodipodi:role="line"
         id="tspan3159"
         x="57.682461"
         y="-59.871895">Lo</tspan></text>
<text
       transform="scale(1,-1)"
       sodipodi:linespacing="125%"
       id="led-jets2hi"
       y="-75.846649"
       x="145.83253"
       style="font-size:9.28244114px;font-style:normal;font-variant:normal;font-weight:normal;font-stretch:normal;text-align:start;line-height:125%;letter-spacing:0px;word-spacing:0px;writing-mode:lr-tb;text-anchor:start;fill:#ff0000;fill-opacity:1;stroke:none;font-family:Sans;-inkscape-font-specification:Sans"
       xml:space="preserve"><tspan
         id="tspan3167"
         sodipodi:role="line"
         x="145.83253"
         y="-75.846649">Hi</tspan></text>
<text
       xml:space="preserve"
       style="font-size:9.28244114px;font-style:normal;font-variant:normal;font-weight:normal;font-stretch:normal;text-align:start;line-height:125%;letter-spacing:0px;word-spacing:0px;writing-mode:lr-tb;text-anchor:start;fill:#ff0000;fill-opacity:1;stroke:none;font-family:Sans;-inkscape-font-specification:Sans"
       x="145.08922"
       y="-59.871895"
       id="led-jets2lo"
       sodipodi:linespacing="125%"
       transform="scale(1,-1)"><tspan
         id="tspan3171"
         sodipodi:role="line"
         x="145.08922"
         y="-59.871895">Lo</tspan></text>
<text
       sodipodi:linespacing="125%"
       id="led-light"
       y="-98.24662"
       x="194.92363"
       style="font-style:normal;font-variant:normal;font-weight:bold;font-stretch:normal;font-size:20px;line-height:125%;font-family:Sans;-inkscape-font-specification:'Sans, Bold';text-align:start;letter-spacing:0px;word-spacing:0px;writing-mode:lr;text-anchor:start;fill:#ff0000;fill-opacity:1;stroke:none;image-rendering:auto;"
       xml:space="preserve"
       transform="scale(1,-1)"
       inkscape:label="#led-ligth"><tspan
         sodipodi:role="line"
         id="tspan9115"></tspan></text>
</g></svg>